<svg width="360" height="106" viewBox="0 0 360 106" fill="none" xmlns="http://www.w3.org/2000/svg">
<path d="M236.222 64.6482C236.222 59.0527 235.767 54.7868 234.937 51.7544C234.251 49.2514 232.687 46.9785 230.021 44.9589L229.471 44.5605C226.544 42.4946 223.162 41.4404 219.229 41.4404C216.033 41.4404 213.534 42.0394 211.612 43.0963L211.585 43.1138C209.704 44.1165 208.262 45.6292 207.247 47.7578L202.396 46.6597V31.2409C202.396 27.6372 202.453 25.0987 202.588 23.7556C202.762 22.0133 203.462 20.4517 204.744 19.2336C206.075 17.9695 207.747 17.3959 209.548 17.3959C211.468 17.3959 213.302 17.9212 214.727 19.2535C214.733 19.259 214.741 19.2655 214.747 19.271C214.755 19.2786 214.764 19.2857 214.772 19.2934H214.769C216.091 20.5132 216.84 22.0797 216.981 23.8677H216.986C216.987 23.884 216.986 23.9007 216.988 23.9175C216.989 23.9315 216.992 23.9458 216.993 23.9598H216.991C217.093 25.0343 217.151 27.0977 217.17 30.0656H236.157C235.945 25.7733 235.193 22.2088 233.958 19.3158L233.654 18.641C232.15 15.4402 229.712 12.8702 226.206 10.944L225.492 10.568C221.617 8.61286 216.488 7.555 209.966 7.555C204.737 7.555 200.22 8.38932 196.363 9.99032L196.35 9.9953C192.587 11.5366 189.681 13.8292 187.55 16.868C185.354 20 184.135 23.2673 183.82 26.694C183.512 30.4454 183.352 38.0223 183.352 49.5283V62.9151C183.352 73.5834 183.531 80.6459 183.875 84.218C184.225 87.4792 185.381 90.6371 187.403 93.7103C189.248 96.4228 191.826 98.5888 195.227 100.185L195.919 100.496C199.635 102.104 204.576 102.976 210.862 102.976V105.526C204.368 105.526 199.049 104.629 194.906 102.837C190.762 101.044 187.555 98.4738 185.284 95.1271C183.053 91.7406 181.738 88.1947 181.34 84.4894C180.981 80.7841 180.802 73.5927 180.802 62.9151V49.5283C180.802 38.014 180.961 30.3246 181.28 26.4599C181.638 22.5554 183.033 18.8701 185.463 15.4038C187.894 11.9376 191.201 9.34788 195.384 7.63468C199.607 5.88165 204.468 5.00513 209.966 5.00513C216.739 5.00513 222.297 6.10077 226.64 8.29207C230.982 10.4834 234.09 13.5711 235.963 17.5553C237.835 21.5394 238.772 26.5595 238.772 32.6155H214.627C214.627 28.1133 214.568 25.2846 214.448 24.1292C214.368 22.9339 213.89 21.9379 213.014 21.141C212.177 20.3442 211.022 19.9458 209.548 19.9458C208.313 19.9458 207.297 20.3243 206.5 21.0813C205.703 21.8383 205.245 22.8144 205.125 24.0096C205.006 25.2049 204.946 27.6153 204.946 31.2409V46.6597C206.181 44.07 207.994 42.1376 210.384 40.8627C212.775 39.5479 215.723 38.8905 219.229 38.8905C223.652 38.8905 227.556 40.0858 230.943 42.4763C234.329 44.8668 236.481 47.7354 237.397 51.0821C238.313 54.4288 238.772 58.9508 238.772 64.6482V72.3576C238.772 79.1307 238.513 84.1707 237.995 87.4775C237.477 90.7844 236.082 93.8522 233.811 96.681C231.58 99.4699 228.492 101.641 224.548 103.195C220.644 104.749 216.082 105.526 210.862 105.526V102.976C215.834 102.976 220.063 102.236 223.604 100.827L223.614 100.822C227.222 99.4008 229.914 97.4685 231.819 95.0873L231.822 95.0848C233.838 92.5738 235.031 89.9139 235.475 87.0841C235.961 83.9815 236.222 79.1036 236.222 72.3576V64.6482ZM214.627 62.7956C214.627 59.3692 214.249 57.0185 213.492 55.7436C212.735 54.4686 211.5 53.8312 209.787 53.8312C208.113 53.8312 206.878 54.4487 206.081 55.6838C205.324 56.8791 204.946 59.2497 204.946 62.7956V80.306C204.946 84.5691 205.304 87.358 206.022 88.6728C206.779 89.9876 208.014 90.6449 209.727 90.6449C210.763 90.6449 211.839 90.1469 212.954 89.1509C214.07 88.115 214.627 85.3659 214.627 80.9036V62.7956ZM217.177 80.9036C217.177 83.2179 217.036 85.2108 216.709 86.8201C216.402 88.3355 215.849 89.9414 214.69 91.0185L214.67 91.0359L214.652 91.0533C213.274 92.2839 211.618 93.1948 209.727 93.1948C207.399 93.1948 205.361 92.2911 204.062 90.3486L203.813 89.9452L203.798 89.9203L203.783 89.8929C203.193 88.8106 202.875 87.4029 202.685 85.9212C202.487 84.3791 202.396 82.4969 202.396 80.306V62.7956C202.396 60.9455 202.494 59.3218 202.712 57.9573C202.923 56.6355 203.278 55.3453 203.927 54.3192L203.94 54.3018C205.278 52.2281 207.388 51.2813 209.787 51.2813C212.233 51.2813 214.388 52.2602 215.683 54.4413C216.294 55.4706 216.648 56.7337 216.861 58.0569C217.079 59.4104 217.177 61.0001 217.177 62.7956V80.9036Z" fill="#EEFF00"/>
<path d="M150.801 27.7747C150.801 25.1451 150.343 23.1929 149.426 21.9179C148.55 20.6032 147.195 19.9458 145.363 19.9458C143.53 19.9458 142.155 20.6629 141.239 22.0972C140.362 23.5315 139.924 26.3802 139.924 30.6433V39.8467H118.29V36.3207C118.29 30.9022 118.569 26.6392 119.127 23.5315C119.685 20.384 121.059 17.2963 123.25 14.2683C125.442 11.2403 128.29 8.94945 131.796 7.39562C135.303 5.84179 139.506 5.06488 144.406 5.06488C154.008 5.06488 161.259 7.45538 166.16 12.2364C171.1 16.9776 173.571 22.9937 173.571 30.2847C173.571 35.8227 172.176 41.6794 169.387 47.8549C166.638 54.0304 158.49 67.1383 144.944 87.1787H171.419V103.673H118.29V89.868C134.028 64.1303 143.37 48.2135 146.319 42.1177C149.307 35.9821 150.801 31.2011 150.801 27.7747ZM153.351 27.7747C153.351 31.8083 151.632 37.0241 148.612 43.2258C145.62 49.4121 136.323 65.2513 120.84 90.5827V101.123H168.869V89.7286H140.143L142.833 85.7519C156.416 65.6563 164.42 52.7474 167.059 46.819L167.064 46.8066C169.736 40.8889 171.021 35.3893 171.021 30.2847C171.021 24.0529 169.067 18.9741 165.194 14.8809L164.394 14.0766L164.38 14.0616C160.119 9.90505 153.613 7.61475 144.406 7.61475C139.767 7.61475 135.934 8.35096 132.83 9.72636C129.725 11.1024 127.237 13.1099 125.317 15.7624C123.314 18.531 122.117 21.2679 121.637 23.9773V23.9822C121.118 26.8728 120.84 30.9627 120.84 36.3207V37.2968H137.374V30.6433C137.374 28.4372 137.487 26.5186 137.733 24.921C137.972 23.3678 138.366 21.908 139.063 20.7675L139.078 20.7451L139.09 20.7252C140.516 18.4927 142.74 17.3959 145.363 17.3959C147.86 17.3959 150.063 18.3354 151.496 20.4289C152.871 22.3427 153.351 24.9368 153.351 27.7747Z" fill="#EEFF00"/>
<path d="M85.6597 105.526H67.3724L96.2377 5.06488H114.346L85.6597 105.526ZM70.7589 102.976H83.7349L110.964 7.61475H98.1576L70.7589 102.976Z" fill="#EEFF00"/>
<path d="M5.09973 74.3895C5.09973 68.5328 5.53799 63.4529 6.41451 59.15C7.33087 54.8471 10.1596 51.4008 14.9008 48.8111C11.9127 47.3768 9.66161 45.1058 8.14762 41.9982C6.67348 38.8507 5.93641 34.8665 5.93641 30.0457C5.93641 21.7187 8.24723 15.4835 12.8689 11.34C17.4905 7.15657 24.4031 5.06488 33.6065 5.06488C44.2442 5.06488 51.595 7.2761 55.6589 11.6985C59.7228 16.121 61.7547 22.4359 61.7547 30.6433C61.7547 35.8625 61.0774 39.6276 59.7228 41.9384C58.408 44.2492 55.6788 46.5401 51.5353 48.8111C55.0812 50.2454 57.8103 52.3969 59.7228 55.2655C61.6352 58.0942 62.5914 64.8673 62.5914 75.5848C62.5914 83.3937 61.8344 89.1509 60.3204 92.8561C58.8064 96.5614 55.8581 99.6093 51.4755 102C47.0929 104.35 41.2163 105.526 33.8455 105.526V102.976C40.9727 102.976 46.378 101.834 50.2529 99.7612C54.2507 97.5806 56.718 94.9309 57.9598 91.8925C59.2792 88.6634 60.0415 83.3171 60.0415 75.5848C60.0415 70.2866 59.8041 66.0449 59.3492 62.8229C58.9399 59.9239 58.3862 58.0994 57.8427 57.0808L57.6111 56.6948L57.6012 56.6799C56.0038 54.2838 53.7041 52.4383 50.5791 51.1742L45.5964 49.1597L50.3101 46.575C54.3179 44.3784 56.544 42.3697 57.5066 40.6784L57.524 40.6485C58.519 38.9506 59.2048 35.7642 59.2048 30.6433C59.2048 23.3264 57.5096 17.937 54.4188 14.1588L53.7814 13.4242C50.4629 9.81293 44.0435 7.61475 33.6065 7.61475C24.7402 7.61475 18.5518 9.63438 14.5796 13.2299L14.5721 13.2374C10.657 16.7475 8.48628 22.1837 8.48628 30.0457C8.48628 34.6093 9.18437 38.1821 10.441 40.8826C11.6353 43.3334 13.3305 45.1044 15.5532 46.2836L16.0039 46.5127L20.4886 48.6642L16.1234 51.0497C11.8731 53.3714 9.63662 56.268 8.9096 59.6804L8.90711 59.6779C8.07642 63.7646 7.6496 68.66 7.6496 74.3895C7.6496 83.0461 8.55674 88.7773 10.0799 91.9746C11.5499 94.9781 13.9228 97.4915 17.3336 99.4873L18.0309 99.8783C21.6987 101.869 26.9015 102.976 33.8455 102.976V105.526C26.674 105.526 20.9966 104.39 16.8132 102.119C12.6298 99.8484 9.62177 96.8403 7.78905 93.0952C5.99617 89.3501 5.09973 83.1148 5.09973 74.3895ZM38.4473 80.6048V68.234C38.4473 64.5287 38.0688 62.0784 37.3118 60.8832C36.5548 59.6481 35.3595 59.0305 33.726 59.0305C32.1324 59.0305 30.9769 59.6281 30.2598 60.8234C29.5825 61.9788 29.2438 64.449 29.2438 68.234V80.7841C29.2438 84.9675 29.6223 87.6568 30.3793 88.8521C31.1761 90.0473 32.4112 90.6449 34.0846 90.6449C35.7978 90.6449 36.9532 90.0473 37.5508 88.8521C38.1485 87.617 38.4473 84.8679 38.4473 80.6048ZM37.9692 34.6474V28.0137C37.9692 24.7467 37.6704 22.5952 37.0727 21.5594C36.5149 20.4836 35.4193 19.9458 33.7858 19.9458C32.1921 19.9458 31.1164 20.5235 30.5586 21.6789C30.0008 22.7945 29.7219 24.9061 29.7219 28.0137V35.3645C29.7219 38.273 30.0407 40.285 30.6781 41.4005C31.3156 42.5161 32.3913 43.0739 33.9053 43.0739C35.499 43.0739 36.5747 42.536 37.1325 41.4603C37.6903 40.3447 37.9692 38.0738 37.9692 34.6474ZM40.9971 80.6048C40.9971 82.7849 40.9212 84.6394 40.7581 86.1403C40.6025 87.5716 40.3451 88.9326 39.8467 89.9626L39.8318 89.9925C38.6745 92.3071 36.4405 93.1948 34.0846 93.1948C31.8694 93.1948 29.875 92.4064 28.5192 90.635L28.2577 90.2664L28.2403 90.2415L28.2254 90.2166C27.5468 89.1453 27.2045 87.7279 27.0027 86.2947C26.7906 84.7874 26.694 82.9385 26.694 80.7841V68.234C26.694 66.2785 26.7795 64.5888 26.9704 63.1965C27.1528 61.8656 27.4631 60.5535 28.061 59.5335L28.0735 59.5111C29.325 57.4256 31.3896 56.4806 33.726 56.4806C36.0992 56.4806 38.1748 57.442 39.4632 59.5186H39.4657C39.4686 59.5232 39.4703 59.5289 39.4732 59.5335C39.4769 59.5395 39.4819 59.5449 39.4856 59.5509H39.4832C40.1283 60.5845 40.4769 61.8924 40.6834 63.2288C40.8996 64.6288 40.9971 66.3084 40.9971 68.234V80.6048ZM40.519 34.6474C40.519 36.4188 40.4466 37.956 40.2899 39.2317C40.1395 40.4566 39.8891 41.6495 39.4134 42.6008L39.406 42.6182L39.396 42.6331C38.259 44.8258 36.1008 45.6238 33.9053 45.6238C31.8102 45.6238 29.8992 44.8388 28.696 43.039L28.4644 42.6655C27.4627 40.9126 27.1721 38.2874 27.1721 35.3645V28.0137C27.1721 26.394 27.2446 24.9697 27.4036 23.7656C27.5578 22.5983 27.8135 21.4668 28.2777 20.5384C28.7785 19.5166 29.552 18.6843 30.5785 18.133C31.5831 17.5937 32.6926 17.3959 33.7858 17.3959C35.9537 17.3959 38.1164 18.1484 39.279 20.2844C39.2924 20.3077 39.3057 20.3331 39.3188 20.3566C39.324 20.3666 39.331 20.3765 39.3362 20.3865H39.3337C39.8435 21.3166 40.1119 22.4604 40.27 23.5988C40.4414 24.8329 40.519 26.315 40.519 28.0137V34.6474Z" fill="#EEFF00"/>
<path d="M231.122 62.1456C231.122 56.5502 230.667 52.2843 229.837 49.2519C229.151 46.7488 227.587 44.4759 224.922 42.4564L224.371 42.0579C221.444 39.992 218.062 38.9378 214.129 38.9378C210.934 38.9378 208.434 39.5368 206.512 40.5938L206.485 40.6112C204.605 41.614 203.162 43.1266 202.147 45.2552L197.296 44.1571V28.7383C197.296 25.1347 197.354 22.5962 197.488 21.2531C197.662 19.5108 198.362 17.9491 199.644 16.731C200.975 15.4669 202.647 14.8933 204.448 14.8933C206.369 14.8933 208.202 15.4187 209.627 16.751C209.633 16.7565 209.641 16.7629 209.647 16.7684C209.655 16.776 209.664 16.7831 209.672 16.7908H209.67C210.992 18.0106 211.74 19.5771 211.881 21.3651H211.886C211.887 21.3814 211.887 21.3982 211.888 21.4149C211.889 21.429 211.892 21.4432 211.893 21.4573H211.891C211.993 22.5317 212.051 24.5951 212.07 27.563H231.057C230.846 23.2707 230.093 19.7062 228.858 16.8132L228.555 16.1384C227.05 12.9377 224.612 10.3676 221.107 8.44147L220.392 8.06547C216.517 6.1103 211.388 5.05243 204.866 5.05243C199.637 5.05243 195.12 5.88675 191.263 7.48776L191.25 7.49274C187.487 9.03401 184.581 11.3266 182.45 14.3654C180.254 17.4975 179.035 20.7648 178.72 24.1914C178.413 27.9428 178.252 35.5197 178.252 47.0257V60.4125C178.252 71.0808 178.432 78.1434 178.775 81.7154C179.126 84.9766 180.282 88.1346 182.303 91.2077C184.148 93.9202 186.726 96.0862 190.127 97.682L190.819 97.9932C194.535 99.601 199.476 100.473 205.763 100.473V103.023C199.268 103.023 193.95 102.127 189.806 100.334C185.662 98.5411 182.455 95.9713 180.184 92.6246C177.953 89.238 176.638 85.6921 176.24 81.9868C175.881 78.2815 175.702 71.0901 175.702 60.4125V47.0257C175.702 35.5114 175.861 27.822 176.18 23.9573C176.539 20.0528 177.933 16.3675 180.364 12.9013C182.794 9.43503 186.101 6.84531 190.284 5.13212C194.507 3.37908 199.368 2.50256 204.866 2.50256C211.639 2.50256 217.197 3.59821 221.54 5.78951C225.883 7.9808 228.99 11.0685 230.863 15.0527C232.735 19.0369 233.672 24.0569 233.672 30.1129H209.528C209.528 25.6108 209.468 22.782 209.348 21.6266C209.269 20.4313 208.791 19.4353 207.914 18.6385C207.077 17.8416 205.922 17.4432 204.448 17.4432C203.213 17.4432 202.197 17.8217 201.4 18.5787C200.603 19.3357 200.145 20.3118 200.025 21.5071C199.906 22.7023 199.846 25.1127 199.846 28.7383V44.1571C201.081 41.5674 202.894 39.6351 205.285 38.3601C207.675 37.0453 210.623 36.388 214.129 36.388C218.552 36.388 222.456 37.5832 225.843 39.9737C229.229 42.3642 231.381 45.2328 232.297 48.5795C233.214 51.9262 233.672 56.4483 233.672 62.1456V69.855C233.672 76.6281 233.413 81.6681 232.895 84.975C232.377 88.2818 230.982 91.3496 228.711 94.1784C226.48 96.9673 223.393 99.1387 219.448 100.693C215.544 102.246 210.982 103.023 205.763 103.023V100.473C210.734 100.473 214.963 99.7335 218.505 98.3244L218.514 98.3195C222.122 96.8982 224.814 94.9659 226.719 92.5847L226.722 92.5822C228.738 90.0712 229.931 87.4114 230.375 84.5815C230.861 81.4789 231.122 76.601 231.122 69.855V62.1456ZM209.528 60.293C209.528 56.8666 209.149 54.516 208.392 53.241C207.635 51.9661 206.4 51.3286 204.687 51.3286C203.014 51.3286 201.778 51.9462 200.982 53.1813C200.225 54.3765 199.846 56.7471 199.846 60.293V77.8034C199.846 82.0665 200.205 84.8554 200.922 86.1702C201.679 87.485 202.914 88.1424 204.627 88.1424C205.663 88.1424 206.739 87.6444 207.854 86.6483C208.97 85.6124 209.528 82.8633 209.528 78.4011V60.293ZM212.078 78.4011C212.078 80.7154 211.936 82.7082 211.609 84.3176C211.302 85.8329 210.749 87.4388 209.59 88.5159L209.57 88.5333L209.553 88.5508C208.174 89.7813 206.518 90.6923 204.627 90.6923C202.299 90.6923 200.261 89.7885 198.962 87.8461L198.713 87.4427L198.698 87.4178L198.683 87.3904C198.093 86.308 197.776 84.9003 197.585 83.4186C197.387 81.8765 197.296 79.9944 197.296 77.8034V60.293C197.296 58.443 197.395 56.8193 197.612 55.4547C197.824 54.133 198.178 52.8427 198.828 51.8167L198.84 51.7992C200.178 49.7255 202.288 48.7787 204.687 48.7787C207.133 48.7787 209.288 49.7577 210.583 51.9387C211.195 52.968 211.548 54.2312 211.761 55.5543C211.979 56.9078 212.078 58.4976 212.078 60.293V78.4011Z" fill="#410EE5"/>
<path d="M145.701 25.2721C145.701 22.6426 145.243 20.6903 144.327 19.4154C143.45 18.1006 142.096 17.4432 140.263 17.4432C138.43 17.4432 137.056 18.1604 136.139 19.5947C135.263 21.029 134.824 23.8776 134.824 28.1407V37.3442H113.19V33.8182C113.19 28.3997 113.469 24.1366 114.027 21.029C114.585 17.8815 115.959 14.7937 118.151 11.7658C120.342 8.73779 123.191 6.44689 126.697 4.89306C130.203 3.33923 134.406 2.56232 139.307 2.56232C148.908 2.56232 156.16 4.95282 161.06 9.73383C166.001 14.475 168.471 20.4911 168.471 27.7821C168.471 33.3201 167.076 39.1769 164.287 45.3523C161.538 51.5278 153.391 64.6357 139.844 84.6761H166.319V101.171H113.19V87.3655C128.928 61.6277 138.271 45.7109 141.219 39.6151C144.207 33.4795 145.701 28.6985 145.701 25.2721ZM148.251 25.2721C148.251 29.3057 146.532 34.5215 143.512 40.7232C140.52 46.9096 131.223 62.7488 115.74 88.0801V98.6207H163.769V87.226H135.044L137.733 83.2493C151.316 63.1538 159.32 50.2448 161.959 44.3165L161.964 44.304C164.637 38.3863 165.921 32.8867 165.921 27.7821C165.921 21.5504 163.968 16.4716 160.094 12.3783L159.295 11.574L159.28 11.5591C155.019 7.40249 148.514 5.11219 139.307 5.11219C134.667 5.11219 130.834 5.84839 127.73 7.2238C124.625 8.59981 122.137 10.6073 120.217 13.2598C118.214 16.0285 117.017 18.7654 116.537 21.4747V21.4797C116.018 24.3702 115.74 28.4602 115.74 33.8182V34.7943H132.275V28.1407C132.275 25.9346 132.387 24.0161 132.633 22.4184C132.872 20.8653 133.266 19.4054 133.963 18.2649L133.978 18.2425L133.99 18.2226C135.417 15.9901 137.64 14.8933 140.263 14.8933C142.76 14.8933 144.963 15.8329 146.396 17.9263C147.772 19.8402 148.251 22.4342 148.251 25.2721Z" fill="#410EE5"/>
<path d="M80.56 103.023H62.2726L91.138 2.56232H109.246L80.56 103.023ZM65.6592 100.473H78.6351L105.864 5.11219H93.0579L65.6592 100.473Z" fill="#410EE5"/>
<path d="M0 71.8869C0 66.0302 0.438259 60.9504 1.31478 56.6475C2.23114 52.3446 5.0599 48.8983 9.80107 46.3085C6.81294 44.8742 4.56188 42.6033 3.04789 39.4956C1.57375 36.3481 0.836676 32.3639 0.836676 27.5431C0.836676 19.2162 3.1475 12.9809 7.76914 8.83739C12.3908 4.65401 19.3033 2.56232 28.5068 2.56232C39.1445 2.56232 46.4953 4.77353 50.5592 9.19597C54.623 13.6184 56.6549 19.9333 56.6549 28.1407C56.6549 33.36 55.9776 37.125 54.623 39.4358C53.3082 41.7467 50.5791 44.0376 46.4355 46.3085C49.9815 47.7428 52.7106 49.8943 54.623 52.7629C56.5354 55.5917 57.4916 62.3648 57.4916 73.0822C57.4916 80.8912 56.7346 86.6483 55.2206 90.3536C53.7067 94.0589 50.7584 97.1068 46.3758 99.4973C41.9932 101.848 36.1165 103.023 28.7458 103.023V100.473C35.873 100.473 41.2783 99.3318 45.1531 97.2587C49.151 95.078 51.6183 92.4283 52.86 89.3899C54.1795 86.1608 54.9418 80.8145 54.9418 73.0822C54.9418 67.784 54.7044 63.5423 54.2495 60.3204C53.8402 57.4213 53.2864 55.5969 52.743 54.5782L52.5114 54.1922L52.5014 54.1773C50.9041 51.7812 48.6043 49.9357 45.4793 48.6717L40.4966 46.6572L45.2104 44.0724C49.2181 41.8758 51.4442 39.8671 52.4068 38.1758L52.4243 38.146C53.4193 36.448 54.1051 33.2617 54.1051 28.1407C54.1051 20.8238 52.4098 15.4345 49.3191 11.6562L48.6816 10.9216C45.3632 7.31037 38.9438 5.11219 28.5068 5.11219C19.6405 5.11219 13.4521 7.13182 9.47984 10.7274L9.47237 10.7349C5.55724 14.245 3.38655 19.6811 3.38655 27.5431C3.38655 32.1068 4.08464 35.6796 5.34128 38.38C6.53556 40.8308 8.23073 42.6018 10.4535 43.7811L10.9042 44.0102L15.3889 46.1616L11.0237 48.5472C6.77337 50.8688 4.53688 53.7654 3.80987 57.1779L3.80738 57.1754C2.97669 61.2621 2.54987 66.1574 2.54987 71.8869C2.54987 80.5435 3.457 86.2748 4.98022 89.4721C6.45012 92.4756 8.8231 94.9889 12.2339 96.9847L12.9311 97.3757C16.599 99.3666 21.8018 100.473 28.7458 100.473V103.023C21.5743 103.023 15.8969 101.888 11.7135 99.6168C7.53009 97.3458 4.52204 94.3378 2.68932 90.5926C0.896439 86.8475 0 80.6123 0 71.8869ZM33.3475 78.1022V65.7314C33.3475 62.0261 32.969 59.5758 32.212 58.3806C31.4551 57.1455 30.2598 56.528 28.6263 56.528C27.0326 56.528 25.8772 57.1256 25.1601 58.3208C24.4827 59.4762 24.1441 61.9464 24.1441 65.7314V78.2815C24.1441 82.4649 24.5226 85.1542 25.2796 86.3495C26.0764 87.5447 27.3115 88.1424 28.9849 88.1424C30.6981 88.1424 31.8535 87.5447 32.4511 86.3495C33.0487 85.1144 33.3475 82.3653 33.3475 78.1022ZM32.8694 32.1448V25.5112C32.8694 22.2441 32.5706 20.0927 31.973 19.0568C31.4152 17.9811 30.3196 17.4432 28.6861 17.4432C27.0924 17.4432 26.0167 18.0209 25.4589 19.1763C24.9011 20.2919 24.6222 22.4035 24.6222 25.5112V32.862C24.6222 35.7704 24.9409 37.7824 25.5784 38.898C26.2159 40.0135 27.2916 40.5713 28.8056 40.5713C30.3992 40.5713 31.475 40.0335 32.0328 38.9577C32.5905 37.8422 32.8694 35.5712 32.8694 32.1448ZM35.8974 78.1022C35.8974 80.2823 35.8215 82.1368 35.6584 83.6378C35.5027 85.069 35.2453 86.43 34.747 87.4601L34.732 87.49C33.5748 89.8045 31.3407 90.6922 28.9849 90.6922C26.7697 90.6922 24.7753 89.9039 23.4195 88.1324L23.158 87.7639L23.1406 87.739L23.1256 87.7141C22.4471 86.6427 22.1047 85.2253 21.903 83.7922C21.6909 82.2848 21.5942 80.436 21.5942 78.2815V65.7314C21.5942 63.776 21.6798 62.0862 21.8706 60.6939C22.0531 59.363 22.3634 58.0509 22.9613 57.031L22.9737 57.0085C24.2252 54.923 26.2898 53.9781 28.6263 53.9781C30.9995 53.9781 33.075 54.9395 34.3635 57.016H34.366C34.3689 57.0206 34.3706 57.0264 34.3735 57.031C34.3772 57.037 34.3822 57.0423 34.3859 57.0484H34.3834C35.0285 58.0819 35.3772 59.3898 35.5837 60.7263C35.7998 62.1263 35.8974 63.8058 35.8974 65.7314V78.1022ZM35.4193 32.1448C35.4193 33.9163 35.3469 35.4534 35.1902 36.7291C35.0398 37.954 34.7893 39.1469 34.3137 40.0982L34.3062 40.1156L34.2963 40.1306C33.1593 42.3233 31.0011 43.1212 28.8056 43.1212C26.7105 43.1212 24.7995 42.3362 23.5963 40.5365L23.3647 40.163C22.363 38.41 22.0723 35.7849 22.0723 32.862V25.5112C22.0723 23.8915 22.1449 22.4671 22.3039 21.263C22.4581 20.0958 22.7137 18.9643 23.1779 18.0359C23.6787 17.0141 24.4523 16.1817 25.4788 15.6304C26.4834 15.0911 27.5929 14.8933 28.6861 14.8933C30.854 14.8933 33.0167 15.6458 34.1792 17.7819C34.1926 17.8051 34.206 17.8305 34.2191 17.8541C34.2243 17.864 34.2313 17.8739 34.2365 17.884H34.234C34.7438 18.8141 35.0122 19.9579 35.1703 21.0962C35.3417 22.3304 35.4193 23.8125 35.4193 25.5112V32.1448Z" fill="#410EE5"/>
<path d="M233.672 59.6431C233.672 54.0476 233.217 49.7817 232.387 46.7493C231.701 44.2463 230.137 41.9734 227.471 39.9538L226.921 39.5554C223.994 37.4895 220.612 36.4353 216.679 36.4353C213.483 36.4353 210.984 37.0343 209.062 38.0912L209.035 38.1086C207.155 39.1114 205.712 40.6241 204.697 42.7527L199.846 41.6545V26.2358C199.846 22.6321 199.904 20.0936 200.038 18.7505C200.212 17.0082 200.912 15.4466 202.194 14.2285C203.525 12.9644 205.197 12.3908 206.998 12.3908C208.919 12.3908 210.752 12.9161 212.177 14.2484C212.183 14.2539 212.191 14.2603 212.197 14.2658C212.205 14.2735 212.214 14.2805 212.222 14.2882H212.22C213.542 15.5081 214.29 17.0746 214.431 18.8626H214.436C214.437 18.8788 214.437 18.8956 214.438 18.9124C214.439 18.9264 214.442 18.9406 214.443 18.9547H214.441C214.543 20.0291 214.601 22.0925 214.62 25.0605H233.607C233.396 20.7682 232.643 17.2037 231.408 14.3107L231.105 13.6358C229.6 10.4351 227.162 7.86504 223.657 5.93891L222.942 5.5629C219.067 3.60773 213.938 2.54987 207.416 2.54987C202.187 2.54987 197.67 3.38419 193.813 4.9852L193.8 4.99018C190.037 6.53145 187.131 8.82406 185 11.8629C182.804 14.9949 181.585 18.2622 181.27 21.6888C180.963 25.4402 180.802 33.0171 180.802 44.5231V57.91C180.802 68.5782 180.981 75.6408 181.325 79.2128C181.676 82.4741 182.831 85.632 184.853 88.7051C186.698 91.4176 189.276 93.5836 192.677 95.1794L193.369 95.4907C197.085 97.0984 202.026 97.9708 208.313 97.9708V100.521C201.818 100.521 196.499 99.6243 192.356 97.8314C188.212 96.0385 185.005 93.4687 182.734 90.122C180.503 86.7355 179.188 83.1895 178.79 79.4843C178.431 75.779 178.252 68.5876 178.252 57.91V44.5231C178.252 33.0089 178.411 25.3194 178.73 21.4548C179.089 17.5503 180.483 13.8649 182.913 10.3987C185.344 6.93246 188.651 4.34275 192.834 2.62955C197.057 0.876518 201.918 0 207.416 0C214.189 0 219.747 1.09565 224.09 3.28694C228.433 5.47824 231.54 8.56597 233.413 12.5501C235.285 16.5343 236.222 21.5544 236.222 27.6103H212.078C212.078 23.1082 212.018 20.2794 211.898 19.124C211.819 17.9288 211.341 16.9327 210.464 16.1359C209.627 15.3391 208.472 14.9407 206.998 14.9407C205.763 14.9407 204.747 15.3191 203.95 16.0761C203.153 16.8331 202.695 17.8093 202.575 19.0045C202.456 20.1998 202.396 22.6102 202.396 26.2358V41.6545C203.631 39.0648 205.444 37.1325 207.834 35.8576C210.225 34.5428 213.173 33.8854 216.679 33.8854C221.102 33.8854 225.006 35.0807 228.393 37.4712C231.779 39.8617 233.931 42.7303 234.847 46.077C235.764 49.4237 236.222 53.9457 236.222 59.6431V67.3525C236.222 74.1255 235.963 79.1655 235.445 82.4724C234.927 85.7793 233.532 88.8471 231.261 91.6758C229.03 94.4648 225.943 96.6361 221.998 98.19C218.094 99.7438 213.532 100.521 208.313 100.521V97.9708C213.284 97.9708 217.513 97.231 221.054 95.8219L221.064 95.8169C224.672 94.3956 227.364 92.4634 229.269 90.0822L229.272 90.0797C231.288 87.5686 232.481 84.9088 232.925 82.079C233.411 78.9763 233.672 74.0985 233.672 67.3525V59.6431ZM212.078 57.7904C212.078 54.3641 211.699 52.0134 210.942 50.7385C210.185 49.4635 208.95 48.826 207.237 48.826C205.563 48.826 204.328 49.4436 203.532 50.6787C202.775 51.8739 202.396 54.2445 202.396 57.7904V75.3009C202.396 79.5639 202.755 82.3529 203.472 83.6676C204.229 84.9824 205.464 85.6398 207.177 85.6398C208.213 85.6398 209.289 85.1418 210.404 84.1458C211.52 83.1099 212.078 80.3608 212.078 75.8985V57.7904ZM214.627 75.8985C214.627 78.2128 214.486 80.2057 214.159 81.815C213.852 83.3303 213.299 84.9363 212.14 86.0133L212.12 86.0308L212.102 86.0482C210.724 87.2787 209.068 88.1897 207.177 88.1897C204.849 88.1897 202.811 87.2859 201.512 85.3435L201.263 84.9401L201.248 84.9152L201.233 84.8878C200.643 83.8055 200.326 82.3978 200.135 80.9161C199.937 79.374 199.846 77.4918 199.846 75.3009V57.7904C199.846 55.9404 199.945 54.3167 200.162 52.9522C200.373 51.6304 200.728 50.3402 201.378 49.3141L201.39 49.2967C202.728 47.223 204.838 46.2762 207.237 46.2762C209.683 46.2762 211.838 47.2551 213.133 49.4361C213.745 50.4655 214.098 51.7286 214.311 53.0518C214.529 54.4053 214.627 55.995 214.627 57.7904V75.8985Z" fill="white"/>
<path d="M148.251 22.7695C148.251 20.14 147.793 18.1877 146.877 16.9128C146 15.598 144.645 14.9406 142.813 14.9406C140.98 14.9406 139.605 15.6578 138.689 17.0921C137.813 18.5264 137.374 21.3751 137.374 25.6381V34.8416H115.74V31.3156C115.74 25.8971 116.019 21.6341 116.577 18.5264C117.135 15.3789 118.509 12.2912 120.701 9.2632C122.892 6.23522 125.741 3.94432 129.247 2.3905C132.753 0.836667 136.956 0.0597534 141.856 0.0597534C151.458 0.0597534 158.71 2.45026 163.61 7.23127C168.55 11.9724 171.021 17.9885 171.021 25.2796C171.021 30.8176 169.626 36.6743 166.837 42.8498C164.088 49.0252 155.941 62.1332 142.394 82.1736H168.869V98.6681H115.74V84.8629C131.478 59.1251 140.821 43.2084 143.769 37.1126C146.757 30.9769 148.251 26.1959 148.251 22.7695ZM150.801 22.7695C150.801 26.8031 149.082 32.019 146.062 38.2207C143.07 44.407 133.773 60.2462 118.29 85.5776V96.1182H166.319V84.7234H137.593L140.283 80.7467C153.866 60.6512 161.87 47.7422 164.509 41.8139L164.514 41.8014C167.187 35.8838 168.471 30.3842 168.471 25.2796C168.471 19.0478 166.518 13.969 162.644 9.87576L161.845 9.07146L161.83 9.05652C157.569 4.89993 151.064 2.60962 141.856 2.60962C137.217 2.60962 133.384 3.34583 130.28 4.72124C127.175 6.09725 124.687 8.10476 122.767 10.7573C120.764 13.5259 119.567 16.2628 119.087 18.9721V18.9771C118.568 21.8676 118.29 25.9576 118.29 31.3156V32.2917H134.824V25.6381C134.824 23.4321 134.937 21.5135 135.183 19.9159C135.422 18.3627 135.816 16.9029 136.513 15.7624L136.528 15.74L136.54 15.72C137.966 13.4875 140.19 12.3908 142.813 12.3908C145.31 12.3908 147.513 13.3303 148.946 15.4237C150.321 17.3376 150.801 19.9317 150.801 22.7695Z" fill="white"/>
<path d="M83.1099 100.521H64.8225L93.6879 0.0597534H111.796L83.1099 100.521ZM68.2091 97.9708H81.185L108.414 2.60962H95.6077L68.2091 97.9708Z" fill="white"/>
<path d="M2.54987 69.3844C2.54987 63.5276 2.98812 58.4478 3.86464 54.1449C4.781 49.842 7.60977 46.3957 12.3509 43.806C9.3628 42.3717 7.11174 40.1007 5.59776 36.993C4.12361 33.8455 3.38654 29.8614 3.38654 25.0405C3.38654 16.7136 5.69736 10.4784 10.319 6.33483C14.9406 2.15144 21.8532 0.0597534 31.0566 0.0597534C41.6944 0.0597534 49.0452 2.27097 53.109 6.6934C57.1729 11.1158 59.2048 17.4308 59.2048 25.6381C59.2048 30.8574 58.5275 34.6225 57.1729 36.9333C55.8581 39.2441 53.129 41.535 48.9854 43.806C52.5313 45.2403 55.2605 47.3917 57.1729 50.2603C59.0853 53.0891 60.0415 59.8622 60.0415 70.5796C60.0415 78.3886 59.2845 84.1457 57.7705 87.851C56.2565 91.5563 53.3082 94.6042 48.9256 96.9947C44.5431 99.3454 38.6664 100.521 31.2957 100.521V97.9708C38.4228 97.9708 43.8282 96.8293 47.703 94.7561C51.7009 92.5754 54.1682 89.9258 55.4099 86.8874C56.7293 83.6582 57.4916 78.312 57.4916 70.5796C57.4916 65.2815 57.2542 61.0397 56.7994 57.8178C56.3901 54.9188 55.8363 53.0943 55.2929 52.0756L55.0613 51.6897L55.0513 51.6747C53.4539 49.2787 51.1542 47.4331 48.0292 46.1691L43.0465 44.1546L47.7603 41.5699C51.768 39.3733 53.9941 37.3646 54.9567 35.6733L54.9741 35.6434C55.9691 33.9455 56.6549 30.7591 56.6549 25.6381C56.6549 18.3213 54.9597 12.9319 51.869 9.15363L51.2315 8.41905C47.9131 4.80781 41.4936 2.60962 31.0566 2.60962C22.1904 2.60962 16.002 4.62925 12.0297 8.22482L12.0222 8.23229C8.10711 11.7424 5.93641 17.1786 5.93641 25.0405C5.93641 29.6042 6.6345 33.177 7.89115 35.8775C9.08543 38.3282 10.7806 40.0992 13.0033 41.2785L13.4541 41.5076L17.9387 43.6591L13.5736 46.0446C9.32324 48.3662 7.08675 51.2629 6.35973 54.6753L6.35724 54.6728C5.52656 58.7595 5.09974 63.6549 5.09974 69.3844C5.09974 78.0409 6.00687 83.7722 7.53008 86.9695C8.99999 89.973 11.373 92.4864 14.7838 94.4822L15.481 94.8731C19.1489 96.864 24.3517 97.9708 31.2957 97.9708V100.521C24.1242 100.521 18.4467 99.3852 14.2633 97.1142C10.08 94.8432 7.0719 91.8352 5.23918 88.0901C3.4463 84.3449 2.54987 78.1097 2.54987 69.3844ZM35.8974 75.5997V63.2288C35.8974 59.5235 35.5189 57.0733 34.7619 55.878C34.0049 54.6429 32.8097 54.0254 31.1762 54.0254C29.5825 54.0254 28.4271 54.623 27.7099 55.8183C27.0326 56.9737 26.694 59.4439 26.694 63.2288V75.779C26.694 79.9624 27.0725 82.6517 27.8294 83.8469C28.6263 85.0422 29.8614 85.6398 31.5347 85.6398C33.2479 85.6398 34.4033 85.0422 35.001 83.8469C35.5986 82.6118 35.8974 79.8628 35.8974 75.5997ZM35.4193 29.6422V23.0086C35.4193 19.7416 35.1205 17.5901 34.5229 16.5542C33.9651 15.4785 32.8694 14.9406 31.2359 14.9406C29.6422 14.9406 28.5665 15.5183 28.0087 16.6738C27.451 17.7893 27.1721 19.9009 27.1721 23.0086V30.3594C27.1721 33.2678 27.4908 35.2799 28.1283 36.3954C28.7657 37.511 29.8415 38.0688 31.3554 38.0688C32.9491 38.0688 34.0248 37.5309 34.5826 36.4552C35.1404 35.3396 35.4193 33.0686 35.4193 29.6422ZM38.4473 75.5997C38.4473 77.7798 38.3714 79.6342 38.2082 81.1352C38.0526 82.5664 37.7952 83.9275 37.2968 84.9575L37.2819 84.9874C36.1246 87.3019 33.8906 88.1897 31.5347 88.1897C29.3196 88.1897 27.3251 87.4013 25.9693 85.6298L25.7079 85.2613L25.6904 85.2364L25.6755 85.2115C24.997 84.1401 24.6546 82.7228 24.4529 81.2896C24.2407 79.7823 24.1441 77.9334 24.1441 75.779V63.2288C24.1441 61.2734 24.2296 59.5836 24.4205 58.1913C24.603 56.8604 24.9133 55.5483 25.5112 54.5284L25.5236 54.506C26.7751 52.4204 28.8397 51.4755 31.1762 51.4755C33.5494 51.4755 35.6249 52.4369 36.9134 54.5134H36.9159C36.9188 54.518 36.9204 54.5238 36.9233 54.5284C36.927 54.5344 36.9321 54.5398 36.9358 54.5458H36.9333C37.5784 55.5793 37.9271 56.8873 38.1335 58.2237C38.3497 59.6237 38.4473 61.3033 38.4473 63.2288V75.5997ZM37.9692 29.6422C37.9692 31.4137 37.8967 32.9508 37.7401 34.2265C37.5896 35.4515 37.3392 36.6444 36.8636 37.5956L36.8561 37.6131L36.8461 37.628C35.7092 39.8207 33.551 40.6186 31.3554 40.6186C29.2603 40.6186 27.3494 39.8337 26.1461 38.0339L25.9146 37.6604C24.9129 35.9075 24.6222 33.2823 24.6222 30.3594V23.0086C24.6222 21.3889 24.6948 19.9645 24.8538 18.7605C25.0079 17.5932 25.2636 16.4617 25.7278 15.5333C26.2286 14.5115 27.0021 13.6791 28.0287 13.1278C29.0332 12.5886 30.1427 12.3908 31.2359 12.3908C33.4038 12.3908 35.5666 13.1433 36.7291 15.2793C36.7425 15.3026 36.7558 15.328 36.7689 15.3515C36.7742 15.3615 36.7812 15.3714 36.7864 15.3814H36.7839C37.2936 16.3115 37.562 17.4553 37.7202 18.5936C37.8916 19.8278 37.9692 21.3099 37.9692 23.0086V29.6422Z" fill="white"/>
<path d="M359.119 86.9634H354.644C354.682 86.1602 354.721 85.7778 354.721 85.3188C354.721 84.8981 354.721 84.898 354.606 82.6032L354.07 69.5988C353.994 67.9159 353.879 66.0035 353.726 64.9326H359.999C359.884 65.9653 359.731 67.9542 359.655 69.5988L359.119 82.6032C359.043 84.8216 359.043 84.8216 359.043 85.357C359.043 85.816 359.043 86.1985 359.119 86.9634ZM359.655 95.3398H354.109V90.0998H359.655V95.3398Z" fill="white"/>
<path d="M326.532 90.2145V92.6624H332.69C334.487 92.6624 335.023 92.6241 335.902 92.5094V96.4107C334.373 96.2577 333.034 96.1812 331.657 96.1812H316.434V97.8641H312.303C312.456 96.6784 312.533 95.4927 312.533 93.5038V84.8598C312.533 84.2096 312.533 84.2096 312.571 82.4884C311.883 83.6358 311.309 84.3626 310.162 85.5482C309.55 84.0948 309.282 83.5976 308.593 82.6796V93.1214C308.593 95.1485 308.632 96.3342 308.785 97.7876H304.195C304.386 96.296 304.424 95.225 304.424 93.2361V83.0621C304.424 81.8382 304.463 80.2318 304.539 78.1664C303.047 80.5377 302.818 80.882 301.823 81.9912C301.441 80.2318 300.867 78.6253 300.217 77.2102C302.856 74.2651 304.692 71.014 306.107 66.8067C306.681 65.0473 307.063 63.4026 307.178 62.2169L311.385 63.5939C311.118 64.2823 311.118 64.3206 310.774 65.4298C310.238 67.0744 309.511 68.9868 308.593 71.0522V81.5322C311.615 78.8166 313.642 75.9097 315.172 72.1997L319.15 73.1941C318.691 74.1121 318.5 74.4563 317.696 75.795H323.128C324.046 74.5328 324.734 73.3089 325.078 72.1997L329.056 72.9646C328.444 74.0356 327.756 75.183 327.335 75.795H332.154C333.684 75.795 334.679 75.7567 335.711 75.6037V79.4668C334.717 79.3521 333.837 79.3138 332.575 79.3138H326.532V81.4175H331.007C332.843 81.4175 333.378 81.3792 334.258 81.2645V84.898C333.149 84.7833 332.46 84.745 331.045 84.745H326.532V86.8869H331.045C332.804 86.8869 333.416 86.8487 334.296 86.7339V90.3675C333.225 90.2528 332.498 90.2145 331.083 90.2145H326.532ZM316.434 81.4175H322.745V79.3138H316.434V81.4175ZM316.434 84.745V86.8869H322.745V84.745H316.434ZM316.434 90.2145V92.6624H322.745V90.2145H316.434ZM321.139 68.4131V65.5827C321.139 64.2823 321.062 63.3644 320.909 62.6376H325.231C325.078 63.4409 325.04 64.2823 325.04 65.621V68.4131H330.663V66.6537C330.663 65.5445 330.624 64.856 330.548 64.0528H334.755C334.64 64.8943 334.602 65.7357 334.602 66.9597V69.5223C334.602 70.9757 334.602 71.2817 334.717 72.0084C333.493 71.9702 333.225 71.9702 332.001 71.9702H314.598C313.26 71.9702 312.724 71.9702 311.921 72.0467C311.997 71.2052 311.997 70.7462 311.997 69.4458V66.539C311.997 65.621 311.959 64.8943 311.844 64.0528H315.975C315.899 64.8943 315.861 65.6975 315.861 66.6919V68.4131H321.139Z" fill="white"/>
<path d="M274.361 84.5538H274.744C274.82 83.2151 274.82 82.7944 274.82 81.035C273.061 81.035 272.028 81.0732 270.996 81.188V77.7457C272.028 77.8986 273.061 77.9369 274.859 77.9369H285.951C287.825 77.9369 288.857 77.8986 289.928 77.7457V81.188C288.896 81.0732 287.863 81.035 285.951 81.035V84.5538H286.524C288.437 84.5538 289.393 84.5156 290.464 84.4008V87.9196C289.316 87.7666 288.36 87.7284 286.524 87.7284H285.951V93.3891C285.951 95.1485 285.989 95.7987 286.142 96.6402H282.126C282.279 95.7222 282.317 95.0338 282.317 93.3509V87.7284H278.033C277.612 91.7827 276.35 94.3071 273.405 97.1757C272.411 96.1047 271.646 95.4545 270.345 94.5366C272.908 92.5477 273.979 90.8265 274.438 87.7284C272.449 87.7284 271.378 87.7666 270.384 87.9196V84.4008C271.455 84.5156 272.411 84.5538 274.361 84.5538ZM282.317 81.035H278.377C278.377 82.7562 278.377 82.7562 278.301 84.5538H282.317V81.035ZM268.356 76.1392V92.9684C268.356 95.225 268.433 96.5255 268.586 97.6347H264.111C264.264 96.5255 264.34 95.2633 264.34 92.8919V67.6482C264.34 65.6593 264.302 64.5883 264.187 63.3644C265.258 63.4791 266.253 63.5174 268.127 63.5174H275.088C277.077 63.5174 277.957 63.4791 278.989 63.3644C278.913 64.4736 278.875 65.5828 278.875 66.9215V72.8117C278.875 74.5328 278.913 75.2595 278.989 76.254C277.995 76.1775 276.809 76.1392 275.471 76.1392H268.356ZM268.356 66.386V68.4131H275.126V66.386H268.356ZM268.356 71.1287V73.1941H275.126V71.1287H268.356ZM296.507 67.6099V92.9301C296.507 96.3342 295.36 97.2139 291.076 97.2139C290.387 97.2139 289.852 97.2139 288.59 97.1374C288.36 95.4163 288.169 94.5748 287.557 93.0831C288.934 93.2744 290.158 93.3891 291.076 93.3891C292.3 93.3891 292.529 93.2361 292.529 92.3947V76.1392H285.033C283.694 76.1392 282.47 76.1775 281.552 76.254C281.629 75.1448 281.629 74.5328 281.629 72.8117V66.9215C281.629 65.468 281.59 64.4736 281.514 63.3644C282.585 63.4791 283.464 63.5174 285.415 63.5174H292.72C294.633 63.5174 295.589 63.4791 296.66 63.3644C296.545 64.7796 296.507 65.6975 296.507 67.6099ZM285.415 66.386V68.4131H292.529V66.386H285.415ZM285.415 71.1287V73.1941H292.529V71.1287H285.415Z" fill="white"/>
<path d="M359.654 90.0994V95.3386H354.108V90.0994H359.654ZM356.658 92.7887H357.104V92.6493H356.658V92.7887ZM360 64.9319C359.885 65.9645 359.73 67.9538 359.654 69.5983L359.118 82.6042C359.042 84.8216 359.044 84.8229 359.044 85.3582C359.044 85.8167 359.042 86.2001 359.118 86.9644H354.644C354.682 86.1612 354.721 85.7774 354.721 85.3184C354.721 85.1082 354.72 85.003 354.706 84.6635L354.606 82.6042L354.071 69.5983C353.995 67.9155 353.878 66.0027 353.725 64.9319H360ZM356.618 69.4838V69.4938L356.862 75.4202L357.106 69.4938V69.4813C357.136 68.8431 357.182 68.1524 357.228 67.4818H356.506L356.618 69.4838Z" fill="white"/>
<path d="M311.386 63.5947C311.118 64.2825 311.117 64.3211 310.773 65.4299C310.238 67.0745 309.512 68.9873 308.594 71.0526V81.5334C311.616 78.8179 313.643 75.9104 315.173 72.2005L319.15 73.194C318.691 74.112 318.499 74.4575 317.696 75.7962H323.127C324.044 74.5343 324.734 73.3095 325.079 72.2005L329.055 72.965C328.444 74.0358 327.755 75.1843 327.335 75.7962H332.153C333.683 75.7962 334.679 75.7575 335.712 75.6045V79.4666C334.717 79.3519 333.836 79.3147 332.574 79.3147H326.533V81.4164H331.008C332.842 81.4164 333.378 81.3792 334.257 81.2645V84.8976C333.148 84.7829 332.46 84.7457 331.045 84.7457H326.533V86.8872H331.045C332.804 86.8872 333.417 86.8475 334.297 86.7328V90.3683C333.226 90.2536 332.498 90.2139 331.082 90.2139H326.533V92.6617H332.689C334.486 92.6617 335.024 92.6246 335.903 92.5098V96.4118C334.756 96.2971 333.715 96.2239 332.686 96.1952L331.658 96.1802H316.433V97.8636H312.305C312.419 96.9746 312.49 96.0855 312.519 94.858L312.534 93.5034V84.8602C312.534 84.2101 312.533 84.2096 312.571 82.4896C311.883 83.6365 311.308 84.3621 310.161 85.5475C309.549 84.0949 309.283 83.5966 308.594 82.6789V93.1224L308.602 94.5019C308.62 95.7584 308.669 96.699 308.784 97.7889H304.194C304.338 96.6701 304.396 95.7868 304.416 94.5766L304.423 93.2369V83.0624C304.423 81.8385 304.464 80.232 304.54 78.1668C303.049 80.5382 302.818 80.8824 301.824 81.9916C301.441 80.2324 300.868 78.6257 300.218 77.2106C302.857 74.2656 304.691 71.014 306.107 66.8069C306.68 65.0479 307.063 63.4033 307.177 62.2177L311.386 63.5947ZM316.433 92.6617H322.746V90.2139H316.433V92.6617ZM316.433 86.8872H322.746V84.7457H316.433V86.8872ZM316.433 81.4164H322.746V79.3147H316.433V81.4164ZM325.231 62.6385C325.078 63.4414 325.039 64.2834 325.039 65.6216V68.413H330.662V66.6525C330.662 65.544 330.624 64.8558 330.547 64.0529H334.755C334.641 64.8941 334.601 65.7354 334.601 66.9588V69.5211C334.601 70.9746 334.603 71.282 334.718 72.0088C333.494 71.9705 333.225 71.9714 332.001 71.9714H314.598C313.26 71.9714 312.724 71.9696 311.921 72.0461C311.997 71.2052 311.998 70.7461 311.998 69.4464V66.538C311.998 65.6205 311.959 64.894 311.844 64.0529H315.975C315.898 64.8943 315.86 65.6979 315.86 66.6924V68.413H321.139V65.5818C321.139 64.2825 321.063 63.3649 320.91 62.6385H325.231Z" fill="white"/>
<path d="M278.989 63.3656C278.913 64.4744 278.875 65.5833 278.875 66.9215V72.8106L278.902 74.8052C278.921 75.3264 278.951 75.7571 278.989 76.2544C277.995 76.1779 276.809 76.1399 275.471 76.1399H268.357V92.968C268.357 95.2245 268.433 96.5253 268.586 97.6345H264.111C264.264 96.5253 264.34 95.2621 264.34 92.8908V67.6486C264.34 65.6604 264.303 64.589 264.188 63.3656C264.991 63.4516 265.752 63.4939 266.872 63.51L268.127 63.5175H275.087C277.076 63.5175 277.957 63.4803 278.989 63.3656ZM296.659 63.3656C296.544 64.7798 296.507 65.6977 296.507 67.6087V92.9307L296.492 93.5382C296.351 96.4404 295.092 97.2136 291.076 97.2136L290.048 97.2037C289.67 97.1941 289.22 97.1747 288.589 97.1365C288.359 95.416 288.17 94.5739 287.558 93.0826C288.59 93.2259 289.536 93.3277 290.332 93.3689L291.076 93.3888C292.147 93.3888 292.457 93.272 292.518 92.6792L292.528 92.3953V76.1399H285.033C283.694 76.1399 282.47 76.1779 281.552 76.2544C281.59 75.7 281.609 75.2694 281.619 74.7628L281.629 72.8106V66.9215C281.629 65.4686 281.591 64.4743 281.514 63.3656C282.317 63.4516 283.013 63.4939 284.134 63.51L285.416 63.5175H292.72C294.632 63.5175 295.589 63.4803 296.659 63.3656ZM282.316 87.7288H278.033C277.612 91.7829 276.349 94.3078 273.404 97.1763C272.41 96.1057 271.646 95.4544 270.346 94.5368C272.908 92.5481 273.978 90.8265 274.437 87.7288C272.449 87.7288 271.378 87.7676 270.383 87.9206V84.402C271.187 84.4881 271.926 84.5303 273.068 84.5465L274.36 84.5539H274.744C274.82 83.2154 274.821 82.7945 274.821 81.0354C273.062 81.0354 272.029 81.0726 270.996 81.1873V77.746C272.028 77.8989 273.061 77.9377 274.858 77.9377H285.952C287.825 77.9377 288.858 77.8989 289.928 77.746V81.1873C288.896 81.0726 287.863 81.0354 285.952 81.0354V84.5539H286.524C288.437 84.5539 289.393 84.5168 290.464 84.402V87.9206C289.603 87.8058 288.85 87.7542 287.752 87.7363L286.524 87.7288H285.952V93.3888C285.952 95.1483 285.988 95.7995 286.141 96.6409H282.127C282.242 95.9522 282.291 95.3919 282.309 94.4446L282.316 93.3515V87.7288ZM278.377 81.0354C278.377 82.7562 278.379 82.7564 278.302 84.5539H282.316V81.0354H278.377ZM268.357 73.1941H275.127V71.1298H268.357V73.1941ZM285.416 73.1941H292.528V71.1298H285.416V73.1941ZM268.357 68.4131H275.127V66.3861H268.357V68.4131ZM285.416 68.4131H292.528V66.3861H285.416V68.4131Z" fill="white"/>
</svg>
