<svg width="416" height="311" viewBox="0 0 416 311" fill="none" xmlns="http://www.w3.org/2000/svg">
<path d="M311.469 213.44V234.586H336.14V213.44H311.469ZM339.763 127.529L335.305 209.872H312.304L307.846 127.529H339.763ZM309.315 128.921L313.623 208.48H333.986L338.293 128.921H309.315ZM337.532 235.979H310.077V212.048H337.532V235.979Z" fill="white"/>
<path d="M275.312 213.44V234.586H299.982V213.44H275.312ZM303.606 127.529L299.148 209.872H276.147L271.688 127.529H303.606ZM273.158 128.921L277.466 208.48H297.829L302.136 128.921H273.158ZM301.375 235.979H273.92V212.048H301.375V235.979Z" fill="white"/>
<path d="M209.198 128.921V234.586H235.565V196.863L243.789 234.586H269.177L255.276 182.504L265.979 147.979H243.789L235.565 173.302V128.921H209.198ZM236.958 164.506L242.777 146.587H267.869L256.724 182.533L270.99 235.979H242.667L236.958 209.789V235.979H207.806V127.529H236.958V164.506Z" fill="white"/>
<path d="M176.413 197.559H202.701L202.693 198.959C202.65 205.882 202.388 211.15 201.898 214.724C201.429 218.429 199.867 222.179 197.298 225.966C194.721 229.786 191.329 232.693 187.145 234.671L187.134 234.676C182.941 236.611 177.833 237.545 171.866 237.545C164.527 237.545 158.509 236.342 153.921 233.819L153.48 233.572L153.472 233.567C148.864 230.848 145.563 227.043 143.618 222.18L143.613 222.165C141.738 217.319 140.843 210.593 140.843 202.084V177.479C140.843 170.071 141.583 164.313 143.16 160.325C144.789 156.205 148.211 152.669 153.199 149.658C158.29 146.542 164.426 145.02 171.54 145.02C178.392 145.02 184.362 146.429 189.393 149.307L189.877 149.59C194.808 152.54 198.235 156.3 200.027 160.893L200.195 161.341C201.886 166.003 202.693 172.478 202.693 180.677V182.069H175.042V170.691C175.042 168.983 174.972 167.585 174.84 166.484C174.705 165.362 174.514 164.641 174.323 164.229L174.316 164.212C174.133 163.804 173.906 163.564 173.658 163.414C173.401 163.259 173.023 163.142 172.453 163.142C171.851 163.142 171.455 163.251 171.198 163.387C170.961 163.513 170.779 163.696 170.641 163.984C170.488 164.302 170.31 164.984 170.183 166.173C170.06 167.323 169.995 168.825 169.995 170.691V211.548C169.995 214.551 170.382 216.616 171.016 217.895C171.324 218.493 171.662 218.862 171.997 219.083C172.322 219.298 172.719 219.423 173.237 219.423V220.815C171.714 220.815 170.561 220.054 169.778 218.531C168.994 216.965 168.603 214.637 168.603 211.548V170.691C168.603 166.906 168.864 164.469 169.386 163.382C169.908 162.294 170.931 161.75 172.453 161.75C173.976 161.75 175.021 162.381 175.586 163.643C176.152 164.861 176.435 167.21 176.435 170.691V180.677H201.301C201.301 172.54 200.496 166.253 198.886 161.815C197.276 157.377 194.035 153.7 189.161 150.785C184.288 147.87 178.414 146.412 171.54 146.412C164.622 146.412 158.748 147.892 153.918 150.851C149.088 153.766 145.934 157.094 144.455 160.836C142.975 164.578 142.235 170.126 142.235 177.479V202.084C142.235 210.525 143.127 217.052 144.911 221.664C146.739 226.232 149.828 229.8 154.179 232.367C158.53 234.891 164.426 236.153 171.866 236.153C177.696 236.153 182.591 235.239 186.551 233.412C190.51 231.541 193.708 228.799 196.145 225.188C198.625 221.533 200.083 217.987 200.518 214.55C200.996 211.069 201.257 205.869 201.301 198.951H177.805V209.263C177.805 213.745 177.479 216.791 176.826 218.4C176.217 220.01 175.021 220.815 173.237 220.815V219.423C173.918 219.423 174.375 219.271 174.694 219.056C175.01 218.844 175.301 218.496 175.524 217.908L175.53 217.892L175.536 217.877C176.074 216.55 176.413 213.763 176.413 209.263V197.559Z" fill="white"/>
<path d="M73.0975 175.717C73.0975 168.944 73.8617 163.57 75.4905 159.708L75.4946 159.701C77.2119 155.694 80.5746 152.276 85.3919 149.394C90.3294 146.441 96.6487 145.02 104.251 145.02C113.291 145.02 120.346 146.622 125.209 150.032C129.976 153.332 132.945 157.495 133.941 162.521C134.887 167.248 135.339 176.831 135.339 191.119V235.979H106.905V231.479C105.692 232.912 104.31 234.109 102.757 235.057L102.751 235.061C99.9714 236.738 96.6878 237.545 92.96 237.545C88.0721 237.545 83.5623 236.179 79.4636 233.462L79.4486 233.452C75.0038 230.422 73.0975 224.086 73.0975 215.268V208.154C73.0975 201.638 74.1022 196.755 76.5076 193.991C77.6967 192.625 79.6522 191.256 82.2306 189.862C84.8354 188.453 88.1846 186.961 92.2611 185.383C94.5664 184.479 96.5756 183.657 98.2927 182.918H73.0975V175.717ZM99.2255 210.177C99.2255 206.261 99.5518 203.259 100.204 201.17C100.901 199.082 103.359 196.493 107.579 193.404V211.221C107.579 215.572 107.318 218.27 106.796 219.314C106.318 220.315 105.252 220.815 103.598 220.815V219.423C105.012 219.423 105.398 219.01 105.54 218.713L105.551 218.691C105.686 218.422 105.868 217.718 105.998 216.373C106.123 215.087 106.187 213.375 106.187 211.221V196.237C105.149 197.088 104.282 197.882 103.581 198.621C102.415 199.849 101.78 200.844 101.525 201.611C100.94 203.499 100.618 206.327 100.618 210.177C100.618 212.394 100.688 214.188 100.823 215.572C100.961 216.979 101.156 217.843 101.347 218.29C101.535 218.685 101.781 218.939 102.088 219.109C102.416 219.291 102.897 219.423 103.598 219.423V220.815C101.858 220.815 100.683 220.163 100.074 218.857C99.5083 217.552 99.2255 214.659 99.2255 210.177ZM74.4898 181.525H99.2255V172.453C99.2255 167.624 99.443 164.643 99.8781 163.512C100.313 162.337 101.423 161.75 103.207 161.75C104.773 161.75 105.883 162.446 106.535 163.838C107.231 165.187 107.579 168.124 107.579 172.649C107.579 176.261 107.275 178.654 106.666 179.828C106.057 181.003 101.423 183.288 92.7642 186.681C84.6712 189.814 79.6023 192.555 77.5573 194.905C75.5123 197.254 74.4898 201.671 74.4898 208.154V215.268C74.4898 224.013 76.4043 229.691 80.2332 232.302C84.1056 234.869 88.3479 236.153 92.96 236.153C96.4843 236.153 99.5083 235.391 102.032 233.868C104.599 232.302 106.688 229.974 108.297 226.885V234.586H133.947V191.119C133.947 176.805 133.49 167.363 132.576 162.794C131.662 158.182 128.943 154.31 124.418 151.177C119.893 148.001 113.171 146.412 104.251 146.412C96.8106 146.412 90.7627 147.805 86.1071 150.589C81.4515 153.374 78.3405 156.594 76.7741 160.249C75.2512 163.86 74.4898 169.016 74.4898 175.717V181.525ZM105.441 179.162C105.628 178.788 105.827 178.097 105.97 176.977C106.112 175.86 106.187 174.422 106.187 172.649C106.187 170.416 106.101 168.611 105.936 167.217C105.787 165.967 105.587 165.147 105.385 164.664L105.298 164.477L105.286 164.453L105.275 164.43C105.042 163.933 104.765 163.634 104.474 163.451C104.181 163.267 103.78 163.142 103.207 163.142C102.452 163.142 101.975 163.269 101.688 163.421C101.435 163.555 101.282 163.73 101.183 163.996L101.126 164.167C101.004 164.584 100.872 165.39 100.777 166.698C100.672 168.14 100.618 170.055 100.618 172.453V181.884C101.159 181.635 101.66 181.4 102.118 181.175C103.252 180.615 104.101 180.142 104.687 179.755C104.98 179.562 105.185 179.406 105.318 179.286C105.391 179.221 105.426 179.179 105.441 179.162Z" fill="white"/>
<path d="M29.6524 128.921H2.17554V234.586H29.6524V190.206H37.8758V234.586H65.3526V128.921H37.8758V166.71H29.6524V128.921ZM66.745 235.979H36.4835V191.598H31.0447V235.979H0.783203V127.529H31.0447V165.318H36.4835V127.529H66.745V235.979Z" fill="white"/>
<path d="M345.385 21.2766H375.076L374.801 26.0586C376.186 24.5395 377.728 23.2854 379.431 22.3113C382.453 20.5645 385.897 19.7102 389.723 19.7102C394.17 19.7102 397.974 20.6945 401.043 22.7559L401.647 23.1829C404.758 25.4921 406.803 28.4545 407.714 32.0468C408.588 35.4514 408.998 41.0017 408.998 48.5794V110.669H379.846V49.2973C379.846 46.3282 379.796 43.9575 379.7 42.1765C379.602 40.3461 379.458 39.2695 379.317 38.7977C379.213 38.4506 379.048 38.2571 378.825 38.1233C378.568 37.9692 378.124 37.8323 377.387 37.8323C376.633 37.8323 376.158 37.9861 375.86 38.179C375.583 38.359 375.348 38.6436 375.191 39.1417L375.187 39.1526C375.009 39.7024 374.834 40.9072 374.714 42.9189C374.597 44.8811 374.537 47.4827 374.537 50.7331V110.669H345.385V21.2766ZM346.778 109.276H373.145V50.7331C373.145 44.2066 373.384 40.2036 373.863 38.7243C374.342 37.2014 375.516 36.44 377.387 36.44C379.171 36.44 380.259 37.0926 380.651 38.3979C381.042 39.7032 381.238 43.3364 381.238 49.2973V109.276H407.605V48.5794C407.605 41.0085 407.192 35.6133 406.365 32.3935C405.539 29.1302 403.689 26.4326 400.818 24.3006C397.946 22.1685 394.248 21.1025 389.723 21.1025C386.111 21.1025 382.913 21.9075 380.129 23.5174C377.387 25.0837 375.06 27.4551 373.145 30.6313L373.602 22.6689H346.778V109.276Z" fill="white"/>
<path d="M338.032 74.294V53.0827C338.032 46.9477 337.597 42.3791 336.727 39.3769C335.9 36.3747 334.334 33.4595 332.028 30.6313C329.722 27.8031 326.437 25.5188 322.173 23.7784C317.952 21.9945 312.883 21.1025 306.966 21.1025C299.917 21.1025 294.13 22.4731 289.605 25.2143C285.08 27.9554 281.947 31.5885 280.207 36.1136C278.467 40.6387 277.596 46.926 277.596 54.9754V77.1657C277.596 84.5189 278.075 90.0448 279.032 93.7431C279.989 97.398 281.578 100.531 283.797 103.141C286.059 105.709 289.214 107.645 293.26 108.95C297.307 110.212 302.245 110.843 308.075 110.843C313.297 110.843 317.909 110.103 321.912 108.624C325.958 107.101 329.265 104.773 331.832 101.64C334.399 98.464 336.074 95.0702 336.857 91.4588C337.641 87.804 338.032 82.0824 338.032 74.294ZM310.273 46.5561C310.273 44.357 310.213 42.5954 310.099 41.2587C309.995 40.048 309.852 39.2959 309.721 38.8956L309.665 38.7446L309.658 38.727C309.526 38.4039 309.349 38.2149 309.128 38.0879C308.886 37.9489 308.497 37.8323 307.88 37.8323C307.264 37.8323 306.863 37.9476 306.604 38.0933C306.363 38.2291 306.168 38.433 306.019 38.7678L306.015 38.7773L306.011 38.7854C305.858 39.1174 305.676 39.8879 305.546 41.2696C305.421 42.6013 305.356 44.3588 305.356 46.5561V85.6502C305.356 87.6707 305.42 89.3137 305.545 90.59C305.672 91.8889 305.852 92.7025 306.03 93.1381C306.189 93.5036 306.39 93.716 306.618 93.8519C306.861 93.9969 307.235 94.113 307.814 94.113V95.5053C306.291 95.5053 305.269 94.8962 304.747 93.6779C304.225 92.4161 303.964 89.7402 303.964 85.6502V46.5561C303.964 42.1181 304.225 39.3334 304.747 38.2021C305.269 37.0273 306.313 36.44 307.88 36.44C309.446 36.44 310.468 37.0273 310.947 38.2021C311.426 39.3334 311.665 42.1181 311.665 46.5561V86.4987C311.665 90.2406 311.404 92.6771 310.882 93.8084C310.403 94.9397 309.381 95.5053 307.814 95.5053V94.113C308.439 94.113 308.835 93.9991 309.082 93.8628C309.305 93.7389 309.475 93.5603 309.6 93.2659L309.608 93.2455L309.617 93.2251C309.78 92.8735 309.958 92.1682 310.085 90.9843C310.208 89.8337 310.273 88.3429 310.273 86.4987V46.5561ZM339.425 74.294C339.425 82.0988 339.034 87.9444 338.219 91.7512V91.7539C337.385 95.5992 335.603 99.1887 332.914 102.516L332.909 102.523C330.176 105.857 326.662 108.323 322.403 109.926L322.394 109.93C318.207 111.478 313.426 112.235 308.075 112.235C302.523 112.235 297.706 111.672 293.648 110.518L292.845 110.28L292.833 110.276C288.87 108.997 285.643 107.111 283.225 104.577L282.752 104.062L282.736 104.043C280.368 101.257 278.689 97.9313 277.685 94.0953V94.0926C276.682 90.2189 276.204 84.5495 276.204 77.1657V54.9754C276.204 46.8528 277.078 40.3689 278.907 35.6133C280.769 30.7737 284.12 26.9086 288.883 24.0232C293.687 21.1134 299.745 19.7102 306.966 19.7102C313.016 19.7102 318.278 20.6216 322.711 22.4949C326.853 24.1872 330.182 26.406 332.629 29.1873L333.107 29.7516C335.51 32.6986 337.176 35.778 338.064 38.9894H338.065C338.992 42.1871 339.425 46.9172 339.425 53.0827V74.294Z" fill="white"/>
<path d="M269.634 74.294V53.0827C269.634 46.9477 269.199 42.3791 268.329 39.3769C267.502 36.3747 265.936 33.4595 263.63 30.6313C261.323 27.8031 258.038 25.5188 253.774 23.7784C249.554 21.9945 244.485 21.1025 238.568 21.1025C231.519 21.1025 225.732 22.4731 221.207 25.2143C216.682 27.9554 213.549 31.5885 211.809 36.1136C210.068 40.6387 209.198 46.926 209.198 54.9754V77.1657C209.198 84.5189 209.677 90.0448 210.634 93.7431C211.591 97.398 213.179 100.531 215.398 103.141C217.661 105.709 220.815 107.645 224.862 108.95C228.908 110.212 233.847 110.843 239.677 110.843C244.898 110.843 249.51 110.103 253.513 108.624C257.56 107.101 260.867 104.773 263.434 101.64C266.001 98.464 267.676 95.0702 268.459 91.4588C269.242 87.804 269.634 82.0824 269.634 74.294ZM241.874 46.5561C241.874 44.357 241.815 42.5954 241.7 41.2587C241.596 40.048 241.454 39.2959 241.322 38.8956L241.267 38.7446L241.26 38.727C241.128 38.4039 240.951 38.2149 240.729 38.0879C240.487 37.9489 240.098 37.8323 239.481 37.8323C238.866 37.8323 238.465 37.9476 238.206 38.0933C237.964 38.2291 237.77 38.433 237.621 38.7678L237.617 38.7773L237.613 38.7854C237.46 39.1174 237.278 39.8879 237.148 41.2696C237.023 42.6013 236.958 44.3588 236.958 46.5561V85.6502C236.958 87.6707 237.022 89.3137 237.147 90.59C237.273 91.8889 237.454 92.7025 237.632 93.1381C237.79 93.5036 237.991 93.716 238.219 93.8519C238.463 93.9969 238.836 94.113 239.416 94.113V95.5053C237.893 95.5053 236.871 94.8962 236.348 93.6779C235.826 92.4161 235.565 89.7402 235.565 85.6502V46.5561C235.565 42.1181 235.826 39.3334 236.348 38.2021C236.871 37.0273 237.915 36.44 239.481 36.44C241.048 36.44 242.07 37.0273 242.549 38.2021C243.027 39.3334 243.267 42.1181 243.267 46.5561V86.4987C243.267 90.2406 243.006 92.6771 242.483 93.8084C242.005 94.9397 240.982 95.5053 239.416 95.5053V94.113C240.04 94.113 240.437 93.9991 240.683 93.8628C240.907 93.7389 241.077 93.5603 241.201 93.2659L241.209 93.2455L241.219 93.2251C241.381 92.8735 241.56 92.1682 241.687 90.9843C241.81 89.8337 241.874 88.3429 241.874 86.4987V46.5561ZM271.026 74.294C271.026 82.0988 270.636 87.9444 269.82 91.7512V91.7539C268.986 95.5992 267.205 99.1887 264.516 102.516L264.511 102.523C261.778 105.857 258.263 108.323 254.004 109.926L253.996 109.93C249.808 111.478 245.027 112.235 239.677 112.235C234.125 112.235 229.307 111.672 225.249 110.518L224.447 110.28L224.435 110.276C220.472 108.997 217.245 107.111 214.827 104.577L214.354 104.062L214.338 104.043C211.97 101.257 210.291 97.9313 209.286 94.0953V94.0926C208.284 90.2189 207.806 84.5495 207.806 77.1657V54.9754C207.806 46.8528 208.68 40.3689 210.509 35.6133C212.37 30.7737 215.722 26.9086 220.485 24.0232C225.288 21.1134 231.347 19.7102 238.568 19.7102C244.618 19.7102 249.879 20.6216 254.313 22.4949C258.455 24.1872 261.783 26.406 264.23 29.1873L264.709 29.7516C267.112 32.6986 268.778 35.778 269.665 38.9894H269.667C270.593 42.1871 271.026 46.9172 271.026 53.0827V74.294Z" fill="white"/>
<path d="M177.196 72.249H203.485L203.476 73.6495C203.433 80.5721 203.171 85.8405 202.681 89.4139C202.212 93.1192 200.65 96.8691 198.081 100.656C195.504 104.476 192.113 107.383 187.928 109.361L187.917 109.366C183.724 111.301 178.616 112.235 172.649 112.235C165.31 112.235 159.292 111.032 154.704 108.509L154.263 108.262L154.255 108.257C149.647 105.538 146.346 101.733 144.401 96.8705L144.396 96.8555C142.521 92.0087 141.626 85.2827 141.626 76.7741V52.169C141.626 44.7613 142.367 39.0034 143.943 35.015C145.572 30.8953 148.994 27.359 153.982 24.3481C159.073 21.2318 165.209 19.7102 172.323 19.7102C179.175 19.7102 185.145 21.1188 190.176 23.9973L190.66 24.2802C195.591 27.2301 199.019 30.9899 200.81 35.5833L200.979 36.0307C202.67 40.6926 203.476 47.1684 203.476 55.367V56.7593H175.826V45.3813C175.826 43.6733 175.755 42.2749 175.623 41.1744C175.488 40.0525 175.297 39.3306 175.106 38.9187L175.099 38.9024C174.917 38.4943 174.689 38.2541 174.441 38.1042C174.184 37.9492 173.806 37.8323 173.237 37.8323C172.634 37.8323 172.238 37.9406 171.982 38.077C171.744 38.2034 171.562 38.3858 171.424 38.6739C171.271 38.9925 171.093 39.6744 170.966 40.8631C170.843 42.0132 170.778 43.5147 170.778 45.3813V86.2376C170.778 89.2414 171.165 91.3063 171.799 92.5847C172.108 93.1835 172.445 93.5521 172.78 93.7731C173.106 93.9882 173.502 94.113 174.02 94.113V95.5053C172.497 95.5053 171.344 94.7439 170.561 93.221C169.778 91.6546 169.386 89.3268 169.386 86.2376V45.3813C169.386 41.5959 169.647 39.1594 170.169 38.0716C170.691 36.9838 171.714 36.44 173.237 36.44C174.76 36.44 175.804 37.0709 176.369 38.3327C176.935 39.5509 177.218 41.9005 177.218 45.3813V55.367H202.084C202.084 47.2305 201.279 40.9433 199.669 36.5052C198.059 32.0672 194.818 28.3905 189.945 25.4753C185.071 22.5601 179.198 21.1025 172.323 21.1025C165.405 21.1025 159.531 22.5819 154.701 25.5406C149.872 28.4558 146.717 31.7843 145.238 35.5262C143.758 39.2681 143.019 44.8157 143.019 52.169V76.7741C143.019 85.2151 143.911 91.7417 145.695 96.3538C147.522 100.922 150.611 104.49 154.962 107.057C159.313 109.581 165.209 110.843 172.649 110.843C178.48 110.843 183.375 109.929 187.334 108.102C191.293 106.231 194.491 103.489 196.928 99.8781C199.408 96.2232 200.866 92.6771 201.301 89.2398C201.779 85.759 202.041 80.5595 202.084 73.6413H178.588V83.9533C178.588 88.4349 178.262 91.4806 177.609 93.0905C177 94.7004 175.804 95.5053 174.02 95.5053V94.113C174.701 94.113 175.158 93.9606 175.477 93.7459C175.793 93.5338 176.084 93.1864 176.307 92.5983L176.314 92.582L176.319 92.567C176.857 91.2404 177.196 88.4531 177.196 83.9533V72.249Z" fill="white"/>
<path d="M135.056 74.294V53.0827C135.056 46.9477 134.621 42.3791 133.751 39.3769C132.924 36.3747 131.358 33.4595 129.052 30.6313C126.746 27.8031 123.461 25.5188 119.197 23.7784C114.976 21.9945 109.907 21.1025 103.99 21.1025C96.9412 21.1025 91.1543 22.4731 86.6292 25.2143C82.1041 27.9554 78.9714 31.5885 77.231 36.1136C75.4905 40.6387 74.6203 46.926 74.6203 54.9754V77.1657C74.6203 84.5189 75.0989 90.0448 76.0562 93.7431C77.0134 97.398 78.6015 100.531 80.8206 103.141C83.0831 105.709 86.2376 107.645 90.2841 108.95C94.3305 110.212 99.269 110.843 105.099 110.843C110.321 110.843 114.933 110.103 118.936 108.624C122.982 107.101 126.289 104.773 128.856 101.64C131.423 98.464 133.098 95.0702 133.881 91.4588C134.665 87.804 135.056 82.0824 135.056 74.294ZM107.297 46.5561C107.297 44.357 107.237 42.5954 107.123 41.2587C107.019 40.048 106.876 39.2959 106.745 38.8956L106.689 38.7446L106.682 38.727C106.55 38.4039 106.373 38.2149 106.152 38.0879C105.91 37.9489 105.521 37.8323 104.904 37.8323C104.288 37.8323 103.887 37.9476 103.628 38.0933C103.387 38.2291 103.192 38.433 103.043 38.7678L103.039 38.7773L103.035 38.7854C102.882 39.1174 102.7 39.8879 102.57 41.2696C102.446 42.6013 102.38 44.3588 102.38 46.5561V85.6502C102.38 87.6707 102.444 89.3137 102.569 90.59C102.696 91.8889 102.876 92.7025 103.054 93.1381C103.213 93.5036 103.414 93.716 103.642 93.8519C103.885 93.9969 104.259 94.113 104.838 94.113V95.5053C103.315 95.5053 102.293 94.8962 101.771 93.6779C101.249 92.4161 100.988 89.7402 100.988 85.6502V46.5561C100.988 42.1181 101.249 39.3334 101.771 38.2021C102.293 37.0273 103.337 36.44 104.904 36.44C106.47 36.44 107.492 37.0273 107.971 38.2021C108.45 39.3334 108.689 42.1181 108.689 46.5561V86.4987C108.689 90.2406 108.428 92.6771 107.906 93.8084C107.427 94.9397 106.405 95.5053 104.838 95.5053V94.113C105.463 94.113 105.859 93.9991 106.106 93.8628C106.329 93.7389 106.499 93.5603 106.624 93.2659L106.632 93.2455L106.641 93.2251C106.804 92.8735 106.982 92.1682 107.109 90.9843C107.232 89.8337 107.297 88.3429 107.297 86.4987V46.5561ZM136.449 74.294C136.449 82.0988 136.058 87.9444 135.243 91.7512V91.7539C134.409 95.5992 132.628 99.1887 129.938 102.516L129.933 102.523C127.2 105.857 123.686 108.323 119.427 109.926L119.418 109.93C115.231 111.478 110.45 112.235 105.099 112.235C99.5475 112.235 94.7296 111.672 90.6716 110.518L89.8694 110.28L89.8571 110.276C85.894 108.997 82.6675 107.111 80.2495 104.577L79.7763 104.062L79.76 104.043C77.3922 101.257 75.7134 97.9313 74.7087 94.0953V94.0926C73.7061 90.2189 73.228 84.5495 73.228 77.1657V54.9754C73.228 46.8528 74.102 40.3689 75.9311 35.6133C77.7925 30.7737 81.144 26.9086 85.9072 24.0232C90.7107 21.1134 96.7689 19.7102 103.99 19.7102C110.04 19.7102 115.302 20.6216 119.735 22.4949C123.877 24.1872 127.206 26.406 129.653 29.1873L130.131 29.7516C132.534 32.6986 134.2 35.778 135.088 38.9894H135.089C136.016 42.1871 136.449 46.9172 136.449 53.0827V74.294Z" fill="white"/>
<path d="M37.4625 31.284C37.4625 28.6286 37.3863 26.505 37.2395 24.9002C37.0876 23.2406 36.8717 22.2994 36.6793 21.8871L36.6684 21.8626L36.6575 21.8368C36.4986 21.4578 36.2597 21.1981 35.907 21.0128C35.5263 20.8128 34.9468 20.6674 34.0904 20.6674C33.1127 20.6674 32.4443 20.8428 31.9978 21.093C31.5794 21.3276 31.2799 21.6685 31.0855 22.1821C30.8519 22.7995 30.6346 23.9134 30.4845 25.629C30.337 27.3138 30.2615 29.4782 30.2615 32.1324V81.2122C30.2615 83.7564 30.3374 85.8316 30.4845 87.4491C30.6156 88.8911 30.7964 89.8895 30.9944 90.5139L31.08 90.7586C31.277 91.2651 31.5688 91.5938 31.9584 91.8165C32.3722 92.0529 32.9892 92.2203 33.8946 92.2203V93.6126C31.7626 93.6126 30.392 92.8294 29.7829 91.2631C29.1737 89.6967 28.8691 86.3464 28.8691 81.2122V32.1324C28.8691 26.7806 29.1737 23.2998 29.7829 21.6899C30.392 20.08 31.8279 19.2751 34.0904 19.2751C36.0919 19.2751 37.3754 19.9495 37.9411 21.2983C38.5502 22.6037 38.8548 25.9322 38.8548 31.284V49.6889H66.3316V39.638C66.3316 29.7611 65.5049 22.4949 63.8515 17.8393C62.1981 13.1401 58.739 9.2242 53.4743 6.09146C48.2095 2.95871 41.5307 1.39233 33.4377 1.39233C27.4768 1.39233 22.1903 2.41483 17.5782 4.45982C13.0096 6.46129 9.42 9.2242 6.80938 12.7485C4.24226 16.2729 2.69764 19.9495 2.17552 23.7784C1.6534 27.5638 1.39233 33.2637 1.39233 40.878V71.7486C1.39233 82.1041 2.24079 89.8707 3.93769 95.0485C5.6346 100.183 9.09367 104.207 14.3149 107.123C19.5362 110.038 26.1715 111.495 34.2209 111.495C41.9658 111.495 48.4706 109.777 53.7353 106.339C59.0436 102.902 62.4592 98.8991 63.982 94.3305C65.5484 89.7619 66.3316 82.0171 66.3316 71.096V66.9843H38.8548V80.2332C38.8548 86.0201 38.5285 89.6967 37.8758 91.2631C37.2667 92.8294 35.9396 93.6126 33.8946 93.6126V92.2203C34.7472 92.2203 35.3265 92.0562 35.7166 91.826C36.086 91.6078 36.3765 91.2785 36.5786 90.7586L36.5841 90.7423L36.5909 90.7273C36.8288 90.1561 37.0614 89.0297 37.2231 87.2071C37.3812 85.4259 37.4625 83.1054 37.4625 80.2332V65.5919H67.7239V71.096C67.7239 82.0261 66.9474 89.9756 65.2996 94.782L65.2982 94.7806C63.6463 99.7271 59.9775 103.955 54.4913 107.507C48.9536 111.121 42.171 112.888 34.2209 112.888C26.2693 112.888 19.5559 111.494 14.1545 108.621L13.6364 108.338C8.31729 105.368 4.66737 101.253 2.79146 95.9975L2.61606 95.4849L2.6147 95.4822C0.847432 90.0898 0 82.1439 0 71.7486V40.878C0 33.2512 0.260025 27.4742 0.795424 23.5908L0.913718 22.8266C1.56338 19.0197 3.16628 15.3846 5.68355 11.9286L5.69034 11.9191C8.46441 8.17427 12.2595 5.26969 17.0194 3.18442C21.8371 1.0493 27.3196 0 33.4377 0C41.4448 0 48.2126 1.50021 53.6633 4.59035L54.1868 4.89492C59.6635 8.15388 63.3782 12.3021 65.1636 17.3729C66.9003 22.2629 67.7239 29.7283 67.7239 39.638V51.0812H37.4625V31.284Z" fill="white"/>
<path d="M317.039 216.225V237.371H341.709V216.225H317.039ZM345.333 130.314L340.874 212.657H317.873L313.415 130.314H345.333ZM314.885 131.706L319.192 211.265H339.555L343.863 131.706H314.885ZM343.101 238.763H315.646V214.833H343.101V238.763Z" fill="white"/>
<path d="M280.881 216.225V237.371H305.552V216.225H280.881ZM309.175 130.314L304.717 212.657H281.716L277.258 130.314H309.175ZM278.728 131.706L283.035 211.265H303.398L307.705 131.706H278.728ZM306.944 238.763H279.489V214.833H306.944V238.763Z" fill="white"/>
<path d="M214.767 131.706V237.371H241.135V199.647L249.358 237.371H274.746L260.845 185.289L271.548 150.764H249.358L241.135 176.087V131.706H214.767ZM242.527 167.291L248.346 149.371H273.438L262.293 185.318L276.559 238.763H248.236L242.527 212.574V238.763H213.375V130.314H242.527V167.291Z" fill="white"/>
<path d="M181.982 200.344H208.271L208.263 201.744C208.219 208.667 207.957 213.935 207.467 217.508C206.998 221.214 205.436 224.964 202.867 228.75C200.29 232.57 196.899 235.478 192.714 237.455L192.703 237.461C188.51 239.396 183.403 240.33 177.435 240.33C170.096 240.33 164.079 239.127 159.49 236.604L159.05 236.357L159.041 236.351C154.433 233.632 151.133 229.828 149.188 224.965L149.182 224.95C147.308 220.103 146.412 213.377 146.412 204.869V180.264C146.412 172.856 147.153 167.098 148.729 163.11C150.358 158.99 153.78 155.454 158.768 152.443C163.859 149.326 169.995 147.805 177.109 147.805C183.961 147.805 189.931 149.213 194.962 152.092L195.446 152.375C200.377 155.325 203.805 159.085 205.596 163.678L205.765 164.125C207.456 168.787 208.263 175.263 208.263 183.462V184.854H180.612V173.476C180.612 171.768 180.542 170.369 180.409 169.269C180.274 168.147 180.084 167.425 179.892 167.013L179.886 166.997C179.703 166.589 179.476 166.349 179.227 166.199C178.971 166.044 178.592 165.927 178.023 165.927C177.42 165.927 177.024 166.035 176.768 166.172C176.53 166.298 176.349 166.48 176.21 166.769C176.057 167.087 175.879 167.769 175.752 168.958C175.629 170.108 175.564 171.609 175.564 173.476V214.332C175.564 217.336 175.951 219.401 176.586 220.679C176.894 221.278 177.231 221.647 177.566 221.868C177.892 222.083 178.288 222.208 178.806 222.208V223.6C177.283 223.6 176.13 222.838 175.347 221.316C174.564 219.749 174.172 217.421 174.172 214.332V173.476C174.172 169.691 174.433 167.254 174.955 166.166C175.477 165.078 176.5 164.535 178.023 164.535C179.546 164.535 180.59 165.165 181.156 166.427C181.721 167.646 182.004 169.995 182.004 173.476V183.462H206.87C206.87 175.325 206.065 169.038 204.455 164.6C202.845 160.162 199.604 156.485 194.731 153.57C189.858 150.655 183.984 149.197 177.109 149.197C170.191 149.197 164.317 150.676 159.487 153.635C154.658 156.55 151.503 159.879 150.024 163.621C148.544 167.363 147.805 172.91 147.805 180.264V204.869C147.805 213.31 148.697 219.836 150.481 224.448C152.308 229.017 155.397 232.585 159.748 235.152C164.099 237.676 169.995 238.937 177.435 238.937C183.266 238.937 188.161 238.024 192.12 236.196C196.08 234.325 199.278 231.584 201.714 227.973C204.194 224.318 205.652 220.772 206.087 217.334C206.566 213.854 206.827 208.654 206.87 201.736H183.375V212.048C183.375 216.529 183.048 219.575 182.396 221.185C181.786 222.795 180.59 223.6 178.806 223.6V222.208C179.487 222.208 179.944 222.055 180.264 221.84C180.579 221.628 180.87 221.281 181.093 220.693L181.1 220.677L181.105 220.662C181.643 219.335 181.982 216.548 181.982 212.048V200.344Z" fill="white"/>
<path d="M78.6668 178.501C78.6668 171.728 79.431 166.355 81.0599 162.492L81.064 162.485C82.7812 158.478 86.144 155.06 90.9612 152.179C95.8987 149.226 102.218 147.805 109.82 147.805C118.86 147.805 125.916 149.407 130.779 152.817C135.546 156.117 138.514 160.28 139.511 165.305C140.456 170.033 140.908 179.615 140.908 193.904V238.763H112.474V234.264C111.261 235.696 109.88 236.893 108.326 237.841L108.321 237.845C105.541 239.523 102.257 240.33 98.5293 240.33C93.6414 240.33 89.1316 238.964 85.0329 236.246L85.018 236.237C80.5731 233.206 78.6668 226.87 78.6668 218.052V210.938C78.6668 204.423 79.6715 199.539 82.0769 196.776C83.266 195.41 85.2216 194.041 87.7999 192.646C90.4047 191.238 93.7539 189.746 97.8304 188.167C100.136 187.264 102.145 186.441 103.862 185.702H78.6668V178.501ZM104.795 212.962C104.795 209.046 105.121 206.043 105.774 203.955C106.47 201.866 108.928 199.278 113.149 196.188V214.006C113.149 218.357 112.888 221.055 112.366 222.099C111.887 223.1 110.821 223.6 109.168 223.6V222.208C110.582 222.208 110.967 221.795 111.109 221.498L111.12 221.476C111.255 221.206 111.437 220.502 111.567 219.158C111.692 217.872 111.756 216.16 111.756 214.006V199.022C110.718 199.873 109.851 200.667 109.15 201.406C107.984 202.633 107.35 203.629 107.094 204.396C106.509 206.283 106.187 209.111 106.187 212.962C106.187 215.178 106.257 216.972 106.392 218.357C106.53 219.763 106.726 220.628 106.916 221.075C107.105 221.469 107.351 221.723 107.657 221.893C107.985 222.076 108.466 222.208 109.168 222.208V223.6C107.427 223.6 106.252 222.947 105.643 221.642C105.078 220.337 104.795 217.443 104.795 212.962ZM80.0591 184.31H104.795V175.238C104.795 170.408 105.012 167.428 105.447 166.297C105.883 165.122 106.992 164.535 108.776 164.535C110.342 164.535 111.452 165.231 112.105 166.623C112.801 167.972 113.149 170.909 113.149 175.434C113.149 179.045 112.844 181.438 112.235 182.613C111.626 183.788 106.992 186.072 98.3335 189.466C90.2406 192.599 85.1716 195.34 83.1266 197.689C81.0816 200.039 80.0591 204.455 80.0591 210.938V218.052C80.0591 226.798 81.9736 232.476 85.8025 235.087C89.6749 237.654 93.9172 238.937 98.5293 238.937C102.054 238.937 105.078 238.176 107.601 236.653C110.168 235.087 112.257 232.759 113.867 229.67V237.371H139.516V193.904C139.516 179.589 139.059 170.147 138.146 165.579C137.232 160.967 134.512 157.094 129.987 153.962C125.462 150.785 118.74 149.197 109.82 149.197C102.38 149.197 96.332 150.589 91.6764 153.374C87.0208 156.159 83.9098 159.379 82.3434 163.033C80.8206 166.645 80.0591 171.801 80.0591 178.501V184.31ZM111.01 181.947C111.197 181.573 111.396 180.882 111.539 179.762C111.681 178.645 111.756 177.207 111.756 175.434C111.756 173.201 111.67 171.395 111.505 170.002C111.357 168.752 111.156 167.931 110.954 167.448L110.867 167.262L110.855 167.238L110.844 167.215C110.611 166.718 110.335 166.418 110.043 166.236C109.75 166.052 109.349 165.927 108.776 165.927C108.021 165.927 107.545 166.053 107.257 166.206C107.004 166.34 106.851 166.515 106.753 166.781L106.696 166.952C106.574 167.369 106.442 168.174 106.346 169.482C106.241 170.925 106.187 172.84 106.187 175.238V184.669C106.728 184.42 107.229 184.185 107.687 183.959C108.822 183.4 109.671 182.926 110.257 182.54C110.55 182.346 110.754 182.19 110.888 182.071C110.96 182.006 110.996 181.964 111.01 181.947Z" fill="white"/>
<path d="M35.2217 131.706H7.74484V237.371H35.2217V192.99H43.4451V237.371H70.9219V131.706H43.4451V169.495H35.2217V131.706ZM72.3143 238.763H42.0528V194.383H36.614V238.763H6.35251V130.314H36.614V168.102H42.0528V130.314H72.3143V238.763Z" fill="white"/>
<path d="M350.955 24.0612H380.645L380.371 28.8433C381.756 27.3241 383.297 26.0701 385 25.096C388.022 23.3491 391.467 22.4949 395.292 22.4949C399.739 22.4949 403.544 23.4791 406.613 25.5406L407.216 25.9675C410.327 28.2768 412.372 31.2392 413.283 34.8314C414.158 38.2361 414.567 43.7864 414.567 51.364V113.453H385.415V52.0819C385.415 49.1129 385.366 46.7422 385.27 44.9612C385.171 43.1307 385.028 42.0542 384.886 41.5823C384.782 41.2353 384.617 41.0418 384.394 40.9079C384.137 40.7539 383.694 40.617 382.957 40.617C382.202 40.617 381.728 40.7708 381.43 40.9637C381.152 41.1437 380.917 41.4282 380.761 41.9263L380.757 41.9372C380.579 42.4871 380.404 43.6918 380.284 45.7036C380.166 47.6658 380.107 50.2674 380.107 53.5178V113.453H350.955V24.0612ZM352.347 112.061H378.714V53.5178C378.714 46.9912 378.954 42.9883 379.432 41.5089C379.911 39.986 381.086 39.2246 382.957 39.2246C384.741 39.2246 385.828 39.8773 386.22 41.1826C386.612 42.4879 386.807 46.121 386.807 52.0819V112.061H413.175V51.364C413.175 43.7932 412.761 38.3979 411.935 35.1782C411.108 31.9149 409.259 29.2172 406.387 27.0852C403.515 24.9532 399.817 23.8872 395.292 23.8872C391.681 23.8872 388.483 24.6921 385.698 26.302C382.957 27.8684 380.629 30.2397 378.714 33.416L379.171 25.4536H352.347V112.061Z" fill="white"/>
<path d="M343.602 77.0787V55.8673C343.602 49.7324 343.166 45.1638 342.296 42.1616C341.47 39.1594 339.903 36.2442 337.597 33.416C335.291 30.5878 332.006 28.3035 327.742 26.5631C323.522 24.7792 318.453 23.8872 312.535 23.8872C305.486 23.8872 299.7 25.2578 295.175 27.9989C290.649 30.7401 287.517 34.3732 285.776 38.8983C284.036 43.4234 283.166 49.7106 283.166 57.76V79.9503C283.166 87.3036 283.644 92.8294 284.601 96.5278C285.559 100.183 287.147 103.315 289.366 105.926C291.628 108.493 294.783 110.429 298.829 111.735C302.876 112.996 307.814 113.627 313.645 113.627C318.866 113.627 323.478 112.888 327.481 111.408C331.527 109.886 334.834 107.558 337.401 104.425C339.968 101.249 341.644 97.8549 342.427 94.2435C343.21 90.5886 343.602 84.867 343.602 77.0787ZM315.842 49.3408C315.842 47.1416 315.783 45.38 315.668 44.0434C315.564 42.8327 315.422 42.0806 315.29 41.6802L315.234 41.5293L315.227 41.5116C315.096 41.1886 314.918 40.9996 314.697 40.8726C314.455 40.7336 314.066 40.617 313.449 40.617C312.834 40.617 312.433 40.7322 312.173 40.878C311.932 41.0138 311.738 41.2177 311.589 41.5524L311.585 41.5619L311.581 41.5701C311.427 41.902 311.245 42.6726 311.116 44.0543C310.991 45.3859 310.925 47.1435 310.925 49.3408V88.4349C310.925 90.4554 310.99 92.0983 311.114 93.3747C311.241 94.6736 311.421 95.4872 311.6 95.9227C311.758 96.2882 311.959 96.5006 312.187 96.6366C312.43 96.7816 312.804 96.8976 313.384 96.8976V98.29C311.861 98.29 310.838 97.6808 310.316 96.4625C309.794 95.2007 309.533 92.5249 309.533 88.4349V49.3408C309.533 44.9027 309.794 42.1181 310.316 40.9868C310.838 39.812 311.883 39.2246 313.449 39.2246C315.015 39.2246 316.038 39.812 316.516 40.9868C316.995 42.1181 317.234 44.9027 317.234 49.3408V89.2833C317.234 93.0252 316.973 95.4618 316.451 96.5931C315.972 97.7243 314.95 98.29 313.384 98.29V96.8976C314.008 96.8976 314.404 96.7838 314.651 96.6475C314.875 96.5236 315.044 96.345 315.169 96.0506L315.177 96.0302L315.187 96.0098C315.349 95.6581 315.527 94.9529 315.654 93.769C315.778 92.6184 315.842 91.1276 315.842 89.2833V49.3408ZM344.994 77.0787C344.994 84.8834 344.604 90.7291 343.788 94.5358V94.5386C342.954 98.3839 341.173 101.973 338.484 105.301L338.478 105.307C335.746 108.642 332.231 111.108 327.972 112.711L327.964 112.715C323.776 114.263 318.995 115.02 313.645 115.02C308.093 115.02 303.275 114.457 299.217 113.302L298.415 113.064L298.402 113.06C294.439 111.782 291.213 109.896 288.795 107.362L288.322 106.847L288.305 106.828C285.938 104.042 284.259 100.716 283.254 96.88V96.8773C282.251 93.0036 281.773 87.3341 281.773 79.9503V57.76C281.773 49.6374 282.647 43.1536 284.476 38.3979C286.338 33.5583 289.689 29.6933 294.453 26.8078C299.256 23.898 305.314 22.4949 312.535 22.4949C318.585 22.4949 323.847 23.4063 328.28 25.2795C332.423 26.9719 335.751 29.1906 338.198 31.972L338.677 32.5363C341.08 35.4832 342.746 38.5627 343.633 41.7741H343.634C344.561 44.9718 344.994 49.7019 344.994 55.8673V77.0787Z" fill="white"/>
<path d="M275.203 77.0787V55.8673C275.203 49.7324 274.768 45.1638 273.898 42.1616C273.071 39.1594 271.505 36.2442 269.199 33.416C266.893 30.5878 263.608 28.3035 259.344 26.5631C255.123 24.7792 250.054 23.8872 244.137 23.8872C237.088 23.8872 231.301 25.2578 226.776 27.9989C222.251 30.7401 219.118 34.3732 217.378 38.8983C215.637 43.4234 214.767 49.7106 214.767 57.76V79.9503C214.767 87.3036 215.246 92.8294 216.203 96.5278C217.16 100.183 218.748 103.315 220.968 105.926C223.23 108.493 226.385 110.429 230.431 111.735C234.477 112.996 239.416 113.627 245.246 113.627C250.468 113.627 255.08 112.888 259.083 111.408C263.129 109.886 266.436 107.558 269.003 104.425C271.57 101.249 273.245 97.8549 274.028 94.2435C274.812 90.5886 275.203 84.867 275.203 77.0787ZM247.444 49.3408C247.444 47.1416 247.384 45.38 247.27 44.0434C247.165 42.8327 247.023 42.0806 246.892 41.6802L246.836 41.5293L246.829 41.5116C246.697 41.1886 246.52 40.9996 246.299 40.8726C246.057 40.7336 245.668 40.617 245.051 40.617C244.435 40.617 244.034 40.7322 243.775 40.878C243.534 41.0138 243.339 41.2177 243.19 41.5524L243.186 41.5619L243.182 41.5701C243.029 41.902 242.847 42.6726 242.717 44.0543C242.592 45.3859 242.527 47.1435 242.527 49.3408V88.4349C242.527 90.4554 242.591 92.0983 242.716 93.3747C242.843 94.6736 243.023 95.4872 243.201 95.9227C243.36 96.2882 243.561 96.5006 243.789 96.6366C244.032 96.7816 244.406 96.8976 244.985 96.8976V98.29C243.462 98.29 242.44 97.6808 241.918 96.4625C241.396 95.2007 241.135 92.5249 241.135 88.4349V49.3408C241.135 44.9027 241.396 42.1181 241.918 40.9868C242.44 39.812 243.484 39.2246 245.051 39.2246C246.617 39.2246 247.639 39.812 248.118 40.9868C248.597 42.1181 248.836 44.9027 248.836 49.3408V89.2833C248.836 93.0252 248.575 95.4618 248.053 96.5931C247.574 97.7243 246.552 98.29 244.985 98.29V96.8976C245.61 96.8976 246.006 96.7838 246.252 96.6475C246.476 96.5236 246.646 96.345 246.771 96.0506L246.779 96.0302L246.788 96.0098C246.95 95.6581 247.129 94.9529 247.256 93.769C247.379 92.6184 247.444 91.1276 247.444 89.2833V49.3408ZM276.596 77.0787C276.596 84.8834 276.205 90.7291 275.389 94.5358V94.5386C274.556 98.3839 272.774 101.973 270.085 105.301L270.08 105.307C267.347 108.642 263.833 111.108 259.573 112.711L259.565 112.715C255.378 114.263 250.597 115.02 245.246 115.02C239.694 115.02 234.877 114.457 230.819 113.302L230.016 113.064L230.004 113.06C226.041 111.782 222.814 109.896 220.396 107.362L219.923 106.847L219.907 106.828C217.539 104.042 215.86 100.716 214.856 96.88V96.8773C213.853 93.0036 213.375 87.3341 213.375 79.9503V57.76C213.375 49.6374 214.249 43.1536 216.078 38.3979C217.939 33.5583 221.291 29.6933 226.054 26.8078C230.858 23.898 236.916 22.4949 244.137 22.4949C250.187 22.4949 255.449 23.4063 259.882 25.2795C264.024 26.9719 267.353 29.1906 269.8 31.972L270.278 32.5363C272.681 35.4832 274.347 38.5627 275.234 41.7741H275.236C276.163 44.9718 276.596 49.7019 276.596 55.8673V77.0787Z" fill="white"/>
<path d="M182.765 75.0337H209.054L209.046 76.4342C209.002 83.3568 208.74 88.6252 208.25 92.1985C207.781 95.9038 206.219 99.6537 203.65 103.441C201.073 107.26 197.682 110.168 193.498 112.145L193.487 112.151C189.294 114.086 184.186 115.02 178.219 115.02C170.879 115.02 164.862 113.817 160.273 111.294L159.833 111.047L159.825 111.041C155.216 108.322 151.916 104.518 149.971 99.6551L149.965 99.6402C148.091 94.7933 147.196 88.0673 147.196 79.5588V54.9536C147.196 47.546 147.936 41.788 149.513 37.7997C151.141 33.68 154.563 30.1437 159.551 27.1328C164.642 24.0165 170.778 22.4949 177.892 22.4949C184.745 22.4949 190.714 23.9035 195.745 26.782L196.229 27.0648C201.16 30.0147 204.588 33.7746 206.379 38.368L206.548 38.8153C208.239 43.4773 209.046 49.9531 209.046 58.1516V59.544H181.395V48.166C181.395 46.4579 181.325 45.0596 181.192 43.9591C181.057 42.8371 180.867 42.1153 180.676 41.7034L180.669 41.687C180.486 41.279 180.259 41.0388 180.011 40.8889C179.754 40.7339 179.376 40.617 178.806 40.617C178.203 40.617 177.808 40.7253 177.551 40.8617C177.313 40.9881 177.132 41.1705 176.994 41.4586C176.841 41.7772 176.663 42.4591 176.535 43.6477C176.412 44.7979 176.348 46.2993 176.348 48.166V89.0223C176.348 92.026 176.734 94.091 177.369 95.3693C177.677 95.9682 178.015 96.3368 178.349 96.5577C178.675 96.7729 179.072 96.8976 179.589 96.8976V98.29C178.066 98.29 176.913 97.5285 176.13 96.0057C175.347 94.4393 174.955 92.1115 174.955 89.0223V48.166C174.955 44.3806 175.216 41.944 175.738 40.8563C176.261 39.7685 177.283 39.2246 178.806 39.2246C180.329 39.2246 181.373 39.8555 181.939 41.1173C182.504 42.3356 182.787 44.6852 182.787 48.166V58.1516H207.653C207.653 50.0152 206.848 43.7279 205.239 39.2899C203.629 34.8518 200.387 31.1752 195.514 28.26C190.641 25.3448 184.767 23.8872 177.892 23.8872C170.974 23.8872 165.1 25.3666 160.271 28.3253C155.441 31.2405 152.286 34.569 150.807 38.3109C149.328 42.0528 148.588 47.6004 148.588 54.9536V79.5588C148.588 87.9998 149.48 94.5263 151.264 99.1384C153.091 103.707 156.181 107.275 160.532 109.842C164.883 112.366 170.778 113.627 178.219 113.627C184.049 113.627 188.944 112.714 192.903 110.886C196.863 109.015 200.061 106.274 202.497 102.663C204.977 99.0079 206.435 95.4618 206.87 92.0245C207.349 88.5437 207.61 83.3442 207.653 76.426H184.158V86.738C184.158 91.2195 183.831 94.2653 183.179 95.8752C182.57 97.485 181.373 98.29 179.589 98.29V96.8976C180.27 96.8976 180.728 96.7453 181.047 96.5305C181.362 96.3184 181.654 95.9711 181.876 95.3829L181.883 95.3666L181.888 95.3517C182.426 94.025 182.765 91.2378 182.765 86.738V75.0337Z" fill="white"/>
<path d="M140.626 77.0787V55.8673C140.626 49.7324 140.19 45.1638 139.32 42.1616C138.494 39.1594 136.927 36.2442 134.621 33.416C132.315 30.5878 129.03 28.3035 124.766 26.5631C120.546 24.7792 115.477 23.8872 109.559 23.8872C102.51 23.8872 96.7236 25.2578 92.1985 27.9989C87.6734 30.7401 84.5407 34.3732 82.8003 38.8983C81.0598 43.4234 80.1896 49.7106 80.1896 57.76V79.9503C80.1896 87.3036 80.6682 92.8294 81.6255 96.5278C82.5827 100.183 84.1708 103.315 86.3899 105.926C88.6524 108.493 91.8069 110.429 95.8534 111.735C99.8998 112.996 104.838 113.627 110.669 113.627C115.89 113.627 120.502 112.888 124.505 111.408C128.551 109.886 131.858 107.558 134.425 104.425C136.992 101.249 138.668 97.8549 139.451 94.2435C140.234 90.5886 140.626 84.867 140.626 77.0787ZM112.866 49.3408C112.866 47.1416 112.807 45.38 112.692 44.0434C112.588 42.8327 112.446 42.0806 112.314 41.6802L112.258 41.5293L112.251 41.5116C112.12 41.1886 111.942 40.9996 111.721 40.8726C111.479 40.7336 111.09 40.617 110.473 40.617C109.858 40.617 109.457 40.7322 109.197 40.878C108.956 41.0138 108.762 41.2177 108.613 41.5524L108.609 41.5619L108.605 41.5701C108.451 41.902 108.269 42.6726 108.14 44.0543C108.015 45.3859 107.949 47.1435 107.949 49.3408V88.4349C107.949 90.4554 108.014 92.0983 108.138 93.3747C108.265 94.6736 108.445 95.4872 108.624 95.9227C108.782 96.2882 108.983 96.5006 109.211 96.6366C109.454 96.7816 109.828 96.8976 110.408 96.8976V98.29C108.885 98.29 107.862 97.6808 107.34 96.4625C106.818 95.2007 106.557 92.5249 106.557 88.4349V49.3408C106.557 44.9027 106.818 42.1181 107.34 40.9868C107.862 39.812 108.906 39.2246 110.473 39.2246C112.039 39.2246 113.062 39.812 113.54 40.9868C114.019 42.1181 114.258 44.9027 114.258 49.3408V89.2833C114.258 93.0252 113.997 95.4618 113.475 96.5931C112.996 97.7243 111.974 98.29 110.408 98.29V96.8976C111.032 96.8976 111.428 96.7838 111.675 96.6475C111.899 96.5236 112.068 96.345 112.193 96.0506L112.201 96.0302L112.211 96.0098C112.373 95.6581 112.551 94.9529 112.678 93.769C112.802 92.6184 112.866 91.1276 112.866 89.2833V49.3408ZM142.018 77.0787C142.018 84.8834 141.628 90.7291 140.812 94.5358V94.5386C139.978 98.3839 138.197 101.973 135.508 105.301L135.502 105.307C132.77 108.642 129.255 111.108 124.996 112.711L124.988 112.715C120.8 114.263 116.019 115.02 110.669 115.02C105.117 115.02 100.299 114.457 96.2409 113.302L95.4387 113.064L95.4264 113.06C91.4633 111.782 88.2368 109.896 85.8188 107.362L85.3456 106.847L85.3293 106.828C82.9615 104.042 81.2827 100.716 80.278 96.88V96.8773C79.2754 93.0036 78.7973 87.3341 78.7973 79.9503V57.76C78.7973 49.6374 79.6713 43.1536 81.5004 38.3979C83.3619 33.5583 86.7133 29.6933 91.4765 26.8078C96.28 23.898 102.338 22.4949 109.559 22.4949C115.609 22.4949 120.871 23.4063 125.304 25.2795C129.446 26.9719 132.775 29.1906 135.222 31.972L135.701 32.5363C138.104 35.4832 139.769 38.5627 140.657 41.7741H140.658C141.585 44.9718 142.018 49.7019 142.018 55.8673V77.0787Z" fill="white"/>
<path d="M43.0318 34.0686C43.0318 31.4132 42.9556 29.2897 42.8088 27.6848C42.6569 26.0252 42.441 25.0841 42.2486 24.6718L42.2377 24.6473L42.2268 24.6214C42.0679 24.2425 41.829 23.9828 41.4763 23.7975C41.0956 23.5974 40.5162 23.4521 39.6597 23.4521C38.682 23.4521 38.0136 23.6275 37.5672 23.8777C37.1488 24.1122 36.8493 24.4532 36.6548 24.9668C36.4212 25.5842 36.2039 26.6981 36.0538 28.4136C35.9064 30.0985 35.8308 32.2629 35.8308 34.9171V83.9968C35.8308 86.541 35.9068 88.6162 36.0538 90.2338C36.1849 91.6758 36.3657 92.6742 36.5637 93.2985L36.6494 93.5433C36.8463 94.0498 37.1381 94.3785 37.5277 94.6011C37.9415 94.8376 38.5585 95.0049 39.4639 95.0049V96.3973C37.3319 96.3973 35.9613 95.6141 35.3522 94.0477C34.7431 92.4813 34.4385 89.131 34.4385 83.9968V34.9171C34.4385 29.5653 34.7431 26.0845 35.3522 24.4746C35.9613 22.8647 37.3972 22.0598 39.6597 22.0598C41.6612 22.0598 42.9448 22.7342 43.5104 24.083C44.1195 25.3883 44.4241 28.7169 44.4241 34.0686V52.4735H71.9009V42.4226C71.9009 32.5458 71.0742 25.2795 69.4208 20.6239C67.7674 15.9248 64.3084 12.0089 59.0436 8.87612C53.7789 5.74337 47.1 4.177 39.0071 4.177C33.0462 4.177 27.7596 5.19949 23.1475 7.24448C18.5789 9.24596 14.9893 12.0089 12.3787 15.5332C9.8116 19.0576 8.26698 22.7342 7.74486 26.5631C7.22273 30.3485 6.96167 36.0484 6.96167 43.6627V74.5333C6.96167 84.8888 7.81012 92.6554 9.50703 97.8331C11.2039 102.967 14.663 106.992 19.8843 109.907C25.1055 112.822 31.7408 114.28 39.7903 114.28C47.5351 114.28 54.0399 112.561 59.3047 109.124C64.6129 105.687 68.0285 101.684 69.5514 97.1152C71.1177 92.5466 71.9009 84.8018 71.9009 73.8806V69.7689H44.4241V83.0178C44.4241 88.8047 44.0978 92.4813 43.4451 94.0477C42.836 95.6141 41.5089 96.3973 39.4639 96.3973V95.0049C40.3165 95.0049 40.8959 94.8408 41.2859 94.6106C41.6554 94.3925 41.9458 94.0632 42.148 93.5433L42.1534 93.527L42.1602 93.512C42.3981 92.9408 42.6307 91.8143 42.7925 89.9917C42.9505 88.2106 43.0318 85.8901 43.0318 83.0178V68.3766H73.2933V73.8806C73.2933 84.8107 72.5167 92.7603 70.8689 97.5666L70.8676 97.5653C69.2156 102.512 65.5468 106.74 60.0607 110.292C54.5229 113.906 47.7403 115.672 39.7903 115.672C31.8386 115.672 25.1253 114.279 19.7238 111.406L19.2058 111.123C13.8866 108.153 10.2367 104.038 8.3608 98.7822L8.1854 98.2696L8.18404 98.2669C6.41677 92.8744 5.56934 84.9285 5.56934 74.5333V43.6627C5.56934 36.0359 5.82936 30.2589 6.36476 26.3755L6.48305 25.6113C7.13272 21.8044 8.73562 18.1692 11.2529 14.7133L11.2597 14.7038C14.0337 10.9589 17.8289 8.05436 22.5887 5.96908C27.4065 3.83397 32.8889 2.78466 39.0071 2.78466C47.0141 2.78466 53.782 4.28487 59.2326 7.37501L59.7561 7.67958C65.2328 10.9385 68.9475 15.0868 70.733 20.1575C72.4696 25.0476 73.2933 32.5129 73.2933 42.4226V53.8659H43.0318V34.0686Z" fill="white"/>
<path d="M318.431 216.225V237.371H343.101V216.225H318.431ZM346.725 130.314L342.266 212.657H319.266L314.807 130.314H346.725ZM316.277 131.706L320.585 211.265H340.947L345.255 131.706H316.277ZM344.494 238.763H317.039V214.833H344.494V238.763Z" fill="#410EE5"/>
<path d="M282.274 216.225V237.371H306.944V216.225H282.274ZM310.568 130.314L306.109 212.657H283.109L278.65 130.314H310.568ZM280.12 131.706L284.428 211.265H304.79L309.098 131.706H280.12ZM308.336 238.763H280.881V214.833H308.336V238.763Z" fill="#410EE5"/>
<path d="M216.16 131.706V237.371H242.527V199.647L250.75 237.371H276.139L262.237 185.289L272.941 150.764H250.75L242.527 176.087V131.706H216.16ZM243.919 167.291L249.739 149.371H274.831L263.685 185.318L277.951 238.763H249.629L243.919 212.574V238.763H214.767V130.314H243.919V167.291Z" fill="#410EE5"/>
<path d="M183.375 200.344H209.663L209.655 201.744C209.611 208.667 209.349 213.935 208.859 217.508C208.39 221.214 206.829 224.964 204.26 228.75C201.682 232.57 198.291 235.478 194.107 237.455L194.096 237.461C189.903 239.396 184.795 240.33 178.828 240.33C171.488 240.33 165.471 239.127 160.882 236.604L160.442 236.357L160.434 236.351C155.825 233.632 152.525 229.828 150.58 224.965L150.575 224.95C148.7 220.103 147.805 213.377 147.805 204.869V180.264C147.805 172.856 148.545 167.098 150.122 163.11C151.75 158.99 155.172 155.454 160.16 152.443C165.251 149.326 171.387 147.805 178.501 147.805C185.354 147.805 191.323 149.213 196.354 152.092L196.838 152.375C201.769 155.325 205.197 159.085 206.988 163.678L207.157 164.125C208.848 168.787 209.655 175.263 209.655 183.462V184.854H182.004V173.476C182.004 171.768 181.934 170.369 181.801 169.269C181.666 168.147 181.476 167.425 181.285 167.013L181.278 166.997C181.095 166.589 180.868 166.349 180.62 166.199C180.363 166.044 179.985 165.927 179.415 165.927C178.813 165.927 178.417 166.035 178.16 166.172C177.923 166.298 177.741 166.48 177.603 166.769C177.45 167.087 177.272 167.769 177.144 168.958C177.021 170.108 176.957 171.609 176.957 173.476V214.332C176.957 217.336 177.343 219.401 177.978 220.679C178.286 221.278 178.624 221.647 178.958 221.868C179.284 222.083 179.681 222.208 180.198 222.208V223.6C178.675 223.6 177.522 222.838 176.739 221.316C175.956 219.749 175.564 217.421 175.564 214.332V173.476C175.564 169.691 175.826 167.254 176.348 166.166C176.87 165.078 177.892 164.535 179.415 164.535C180.938 164.535 181.982 165.165 182.548 166.427C183.113 167.646 183.396 169.995 183.396 173.476V183.462H208.263C208.263 175.325 207.458 169.038 205.848 164.6C204.238 160.162 200.996 156.485 196.123 153.57C191.25 150.655 185.376 149.197 178.501 149.197C171.583 149.197 165.709 150.676 160.88 153.635C156.05 156.55 152.896 159.879 151.416 163.621C149.937 167.363 149.197 172.91 149.197 180.264V204.869C149.197 213.31 150.089 219.836 151.873 224.448C153.7 229.017 156.79 232.585 161.141 235.152C165.492 237.676 171.387 238.937 178.828 238.937C184.658 238.937 189.553 238.024 193.512 236.196C197.472 234.325 200.67 231.584 203.107 227.973C205.587 224.318 207.044 220.772 207.479 217.334C207.958 213.854 208.219 208.654 208.263 201.736H184.767V212.048C184.767 216.529 184.441 219.575 183.788 221.185C183.179 222.795 181.982 223.6 180.198 223.6V222.208C180.879 222.208 181.337 222.055 181.656 221.84C181.971 221.628 182.263 221.281 182.485 220.693L182.492 220.677L182.498 220.662C183.035 219.335 183.375 216.548 183.375 212.048V200.344Z" fill="#410EE5"/>
<path d="M80.0591 178.501C80.0591 171.728 80.8233 166.355 82.4522 162.492L82.4563 162.485C84.1736 158.478 87.5363 155.06 92.3535 152.179C97.291 149.226 103.61 147.805 111.213 147.805C120.253 147.805 127.308 149.407 132.171 152.817C136.938 156.117 139.907 160.28 140.903 165.305C141.848 170.033 142.301 179.615 142.301 193.904V238.763H113.867V234.264C112.653 235.696 111.272 236.893 109.718 237.841L109.713 237.845C106.933 239.523 103.65 240.33 99.9216 240.33C95.0337 240.33 90.524 238.964 86.4253 236.246L86.4103 236.237C81.9655 233.206 80.0591 226.87 80.0591 218.052V210.938C80.0591 204.423 81.0638 199.539 83.4693 196.776C84.6584 195.41 86.6139 194.041 89.1922 192.646C91.797 191.238 95.1463 189.746 99.2228 188.167C101.528 187.264 103.537 186.441 105.254 185.702H80.0591V178.501ZM106.187 212.962C106.187 209.046 106.513 206.043 107.166 203.955C107.862 201.866 110.321 199.278 114.541 196.188V214.006C114.541 218.357 114.28 221.055 113.758 222.099C113.279 223.1 112.213 223.6 110.56 223.6V222.208C111.974 222.208 112.359 221.795 112.502 221.498L112.512 221.476C112.647 221.206 112.83 220.502 112.96 219.158C113.084 217.872 113.149 216.16 113.149 214.006V199.022C112.111 199.873 111.244 200.667 110.542 201.406C109.376 202.633 108.742 203.629 108.486 204.396C107.902 206.283 107.579 209.111 107.579 212.962C107.579 215.178 107.649 216.972 107.785 218.357C107.922 219.763 108.118 220.628 108.308 221.075C108.497 221.469 108.743 221.723 109.049 221.893C109.378 222.076 109.858 222.208 110.56 222.208V223.6C108.82 223.6 107.645 222.947 107.036 221.642C106.47 220.337 106.187 217.443 106.187 212.962ZM81.4515 184.31H106.187V175.238C106.187 170.408 106.405 167.428 106.84 166.297C107.275 165.122 108.384 164.535 110.168 164.535C111.735 164.535 112.844 165.231 113.497 166.623C114.193 167.972 114.541 170.909 114.541 175.434C114.541 179.045 114.237 181.438 113.627 182.613C113.018 183.788 108.384 186.072 99.7258 189.466C91.6329 192.599 86.5639 195.34 84.519 197.689C82.474 200.039 81.4515 204.455 81.4515 210.938V218.052C81.4515 226.798 83.3659 232.476 87.1948 235.087C91.0673 237.654 95.3095 238.937 99.9216 238.937C103.446 238.937 106.47 238.176 108.994 236.653C111.561 235.087 113.649 232.759 115.259 229.67V237.371H140.908V193.904C140.908 179.589 140.452 170.147 139.538 165.579C138.624 160.967 135.905 157.094 131.38 153.962C126.855 150.785 120.132 149.197 111.213 149.197C103.772 149.197 97.7244 150.589 93.0688 153.374C88.4131 156.159 85.3021 159.379 83.7358 163.033C82.2129 166.645 81.4515 171.801 81.4515 178.501V184.31ZM112.402 181.947C112.59 181.573 112.789 180.882 112.931 179.762C113.073 178.645 113.149 177.207 113.149 175.434C113.149 173.201 113.062 171.395 112.897 170.002C112.749 168.752 112.548 167.931 112.347 167.448L112.26 167.262L112.247 167.238L112.236 167.215C112.003 166.718 111.727 166.418 111.436 166.236C111.143 166.052 110.742 165.927 110.168 165.927C109.414 165.927 108.937 166.053 108.65 166.206C108.397 166.34 108.244 166.515 108.145 166.781L108.088 166.952C107.966 167.369 107.834 168.174 107.739 169.482C107.633 170.925 107.579 172.84 107.579 175.238V184.669C108.121 184.42 108.621 184.185 109.079 183.959C110.214 183.4 111.063 182.926 111.649 182.54C111.942 182.346 112.147 182.19 112.28 182.071C112.352 182.006 112.388 181.964 112.402 181.947Z" fill="#410EE5"/>
<path d="M36.614 131.706H9.13721V237.371H36.614V192.99H44.8375V237.371H72.3143V131.706H44.8375V169.495H36.614V131.706ZM73.7066 238.763H43.4452V194.383H38.0064V238.763H7.74487V130.314H38.0064V168.102H43.4452V130.314H73.7066V238.763Z" fill="#410EE5"/>
<path d="M352.347 24.0612H382.038L381.763 28.8433C383.148 27.3241 384.69 26.0701 386.393 25.096C389.414 23.3491 392.859 22.4949 396.684 22.4949C401.132 22.4949 404.936 23.4791 408.005 25.5406L408.609 25.9675C411.719 28.2768 413.765 31.2392 414.676 34.8314C415.55 38.2361 415.959 43.7864 415.959 51.364V113.453H386.807V52.0819C386.807 49.1129 386.758 46.7422 386.662 44.9612C386.563 43.1307 386.42 42.0542 386.278 41.5823C386.174 41.2353 386.009 41.0418 385.786 40.9079C385.529 40.7539 385.086 40.617 384.349 40.617C383.594 40.617 383.12 40.7708 382.822 40.9637C382.544 41.1437 382.31 41.4282 382.153 41.9263L382.149 41.9372C381.971 42.4871 381.796 43.6918 381.676 45.7036C381.559 47.6658 381.499 50.2674 381.499 53.5178V113.453H352.347V24.0612ZM353.74 112.061H380.107V53.5178C380.107 46.9912 380.346 42.9883 380.825 41.5089C381.303 39.986 382.478 39.2246 384.349 39.2246C386.133 39.2246 387.221 39.8773 387.612 41.1826C388.004 42.4879 388.2 46.121 388.2 52.0819V112.061H414.567V51.364C414.567 43.7932 414.154 38.3979 413.327 35.1782C412.5 31.9149 410.651 29.2172 407.779 27.0852C404.908 24.9532 401.209 23.8872 396.684 23.8872C393.073 23.8872 389.875 24.6921 387.09 26.302C384.349 27.8684 382.021 30.2397 380.107 33.416L380.564 25.4536H353.74V112.061Z" fill="#410EE5"/>
<path d="M344.994 77.0787V55.8673C344.994 49.7324 344.559 45.1638 343.689 42.1616C342.862 39.1594 341.296 36.2442 338.989 33.416C336.683 30.5878 333.398 28.3035 329.134 26.5631C324.914 24.7792 319.845 23.8872 313.927 23.8872C306.879 23.8872 301.092 25.2578 296.567 27.9989C292.042 30.7401 288.909 34.3732 287.169 38.8983C285.428 43.4234 284.558 49.7106 284.558 57.76V79.9503C284.558 87.3036 285.037 92.8294 285.994 96.5278C286.951 100.183 288.539 103.315 290.758 105.926C293.021 108.493 296.175 110.429 300.222 111.735C304.268 112.996 309.207 113.627 315.037 113.627C320.258 113.627 324.87 112.888 328.873 111.408C332.92 109.886 336.227 107.558 338.794 104.425C341.361 101.249 343.036 97.8549 343.819 94.2435C344.602 90.5886 344.994 84.867 344.994 77.0787ZM317.234 49.3408C317.234 47.1416 317.175 45.38 317.06 44.0434C316.956 42.8327 316.814 42.0806 316.682 41.6802L316.627 41.5293L316.62 41.5116C316.488 41.1886 316.311 40.9996 316.089 40.8726C315.847 40.7336 315.458 40.617 314.841 40.617C314.226 40.617 313.825 40.7322 313.566 40.878C313.324 41.0138 313.13 41.2177 312.981 41.5524L312.977 41.5619L312.973 41.5701C312.82 41.902 312.638 42.6726 312.508 44.0543C312.383 45.3859 312.318 47.1435 312.318 49.3408V88.4349C312.318 90.4554 312.382 92.0983 312.507 93.3747C312.633 94.6736 312.814 95.4872 312.992 95.9227C313.15 96.2882 313.351 96.5006 313.579 96.6366C313.823 96.7816 314.196 96.8976 314.776 96.8976V98.29C313.253 98.29 312.231 97.6808 311.708 96.4625C311.186 95.2007 310.925 92.5249 310.925 88.4349V49.3408C310.925 44.9027 311.186 42.1181 311.708 40.9868C312.231 39.812 313.275 39.2246 314.841 39.2246C316.408 39.2246 317.43 39.812 317.909 40.9868C318.387 42.1181 318.627 44.9027 318.627 49.3408V89.2833C318.627 93.0252 318.366 95.4618 317.843 96.5931C317.365 97.7243 316.342 98.29 314.776 98.29V96.8976C315.4 96.8976 315.797 96.7838 316.043 96.6475C316.267 96.5236 316.437 96.345 316.561 96.0506L316.569 96.0302L316.579 96.0098C316.741 95.6581 316.92 94.9529 317.047 93.769C317.17 92.6184 317.234 91.1276 317.234 89.2833V49.3408ZM346.386 77.0787C346.386 84.8834 345.996 90.7291 345.18 94.5358V94.5386C344.346 98.3839 342.565 101.973 339.876 105.301L339.871 105.307C337.138 108.642 333.623 111.108 329.364 112.711L329.356 112.715C325.168 114.263 320.387 115.02 315.037 115.02C309.485 115.02 304.667 114.457 300.609 113.302L299.807 113.064L299.795 113.06C295.832 111.782 292.605 109.896 290.187 107.362L289.714 106.847L289.698 106.828C287.33 104.042 285.651 100.716 284.646 96.88V96.8773C283.644 93.0036 283.166 87.3341 283.166 79.9503V57.76C283.166 49.6374 284.04 43.1536 285.869 38.3979C287.73 33.5583 291.082 29.6933 295.845 26.8078C300.648 23.898 306.707 22.4949 313.927 22.4949C319.978 22.4949 325.239 23.4063 329.673 25.2795C333.815 26.9719 337.143 29.1906 339.59 31.972L340.069 32.5363C342.472 35.4832 344.138 38.5627 345.025 41.7741H345.027C345.953 44.9718 346.386 49.7019 346.386 55.8673V77.0787Z" fill="#410EE5"/>
<path d="M276.596 77.0787V55.8673C276.596 49.7324 276.161 45.1638 275.29 42.1616C274.464 39.1594 272.897 36.2442 270.591 33.416C268.285 30.5878 265 28.3035 260.736 26.5631C256.516 24.7792 251.447 23.8872 245.529 23.8872C238.48 23.8872 232.694 25.2578 228.169 27.9989C223.643 30.7401 220.511 34.3732 218.77 38.8983C217.03 43.4234 216.16 49.7106 216.16 57.76V79.9503C216.16 87.3036 216.638 92.8294 217.596 96.5278C218.553 100.183 220.141 103.315 222.36 105.926C224.622 108.493 227.777 110.429 231.823 111.735C235.87 112.996 240.808 113.627 246.639 113.627C251.86 113.627 256.472 112.888 260.475 111.408C264.521 109.886 267.828 107.558 270.395 104.425C272.962 101.249 274.638 97.8549 275.421 94.2435C276.204 90.5886 276.596 84.867 276.596 77.0787ZM248.836 49.3408C248.836 47.1416 248.777 45.38 248.662 44.0434C248.558 42.8327 248.416 42.0806 248.284 41.6802L248.228 41.5293L248.221 41.5116C248.09 41.1886 247.912 40.9996 247.691 40.8726C247.449 40.7336 247.06 40.617 246.443 40.617C245.828 40.617 245.427 40.7322 245.168 40.878C244.926 41.0138 244.732 41.2177 244.583 41.5524L244.579 41.5619L244.575 41.5701C244.421 41.902 244.239 42.6726 244.11 44.0543C243.985 45.3859 243.919 47.1435 243.919 49.3408V88.4349C243.919 90.4554 243.984 92.0983 244.108 93.3747C244.235 94.6736 244.415 95.4872 244.594 95.9227C244.752 96.2882 244.953 96.5006 245.181 96.6366C245.424 96.7816 245.798 96.8976 246.378 96.8976V98.29C244.855 98.29 243.832 97.6808 243.31 96.4625C242.788 95.2007 242.527 92.5249 242.527 88.4349V49.3408C242.527 44.9027 242.788 42.1181 243.31 40.9868C243.832 39.812 244.877 39.2246 246.443 39.2246C248.009 39.2246 249.032 39.812 249.51 40.9868C249.989 42.1181 250.228 44.9027 250.228 49.3408V89.2833C250.228 93.0252 249.967 95.4618 249.445 96.5931C248.967 97.7243 247.944 98.29 246.378 98.29V96.8976C247.002 96.8976 247.398 96.7838 247.645 96.6475C247.869 96.5236 248.038 96.345 248.163 96.0506L248.171 96.0302L248.181 96.0098C248.343 95.6581 248.521 94.9529 248.648 93.769C248.772 92.6184 248.836 91.1276 248.836 89.2833V49.3408ZM277.988 77.0787C277.988 84.8834 277.598 90.7291 276.782 94.5358V94.5386C275.948 98.3839 274.167 101.973 271.478 105.301L271.472 105.307C268.74 108.642 265.225 111.108 260.966 112.711L260.958 112.715C256.77 114.263 251.989 115.02 246.639 115.02C241.087 115.02 236.269 114.457 232.211 113.302L231.409 113.064L231.396 113.06C227.433 111.782 224.207 109.896 221.789 107.362L221.316 106.847L221.299 106.828C218.932 104.042 217.253 100.716 216.248 96.88V96.8773C215.245 93.0036 214.767 87.3341 214.767 79.9503V57.76C214.767 49.6374 215.641 43.1536 217.47 38.3979C219.332 33.5583 222.683 29.6933 227.447 26.8078C232.25 23.898 238.308 22.4949 245.529 22.4949C251.579 22.4949 256.841 23.4063 261.275 25.2795C265.417 26.9719 268.745 29.1906 271.192 31.972L271.671 32.5363C274.074 35.4832 275.74 38.5627 276.627 41.7741H276.628C277.555 44.9718 277.988 49.7019 277.988 55.8673V77.0787Z" fill="#410EE5"/>
<path d="M184.158 75.0337H210.446L210.438 76.4342C210.395 83.3568 210.133 88.6252 209.643 92.1985C209.174 95.9038 207.612 99.6537 205.043 103.441C202.465 107.26 199.074 110.168 194.89 112.145L194.879 112.151C190.686 114.086 185.578 115.02 179.611 115.02C172.272 115.02 166.254 113.817 161.666 111.294L161.225 111.047L161.217 111.041C156.608 108.322 153.308 104.518 151.363 99.6551L151.358 99.6402C149.483 94.7933 148.588 88.0673 148.588 79.5588V54.9536C148.588 47.546 149.328 41.788 150.905 37.7997C152.534 33.68 155.955 30.1437 160.944 27.1328C166.034 24.0165 172.17 22.4949 179.285 22.4949C186.137 22.4949 192.107 23.9035 197.137 26.782L197.622 27.0648C202.553 30.0147 205.98 33.7746 207.772 38.368L207.94 38.8153C209.631 43.4773 210.438 49.9531 210.438 58.1516V59.544H182.787V48.166C182.787 46.4579 182.717 45.0596 182.585 43.9591C182.45 42.8371 182.259 42.1153 182.068 41.7034L182.061 41.687C181.878 41.279 181.651 41.0388 181.403 40.8889C181.146 40.7339 180.768 40.617 180.198 40.617C179.596 40.617 179.2 40.7253 178.943 40.8617C178.706 40.9881 178.524 41.1705 178.386 41.4586C178.233 41.7772 178.055 42.4591 177.928 43.6477C177.804 44.7979 177.74 46.2993 177.74 48.166V89.0223C177.74 92.026 178.126 94.091 178.761 95.3693C179.069 95.9682 179.407 96.3368 179.741 96.5577C180.067 96.7729 180.464 96.8976 180.982 96.8976V98.29C179.459 98.29 178.306 97.5285 177.522 96.0057C176.739 94.4393 176.348 92.1115 176.348 89.0223V48.166C176.348 44.3806 176.609 41.944 177.131 40.8563C177.653 39.7685 178.675 39.2246 180.198 39.2246C181.721 39.2246 182.765 39.8555 183.331 41.1173C183.897 42.3356 184.18 44.6852 184.18 48.166V58.1516H209.046C209.046 50.0152 208.241 43.7279 206.631 39.2899C205.021 34.8518 201.779 31.1752 196.906 28.26C192.033 25.3448 186.159 23.8872 179.285 23.8872C172.366 23.8872 166.493 25.3666 161.663 28.3253C156.833 31.2405 153.679 34.569 152.199 38.3109C150.72 42.0528 149.98 47.6004 149.98 54.9536V79.5588C149.98 87.9998 150.872 94.5263 152.656 99.1384C154.484 103.707 157.573 107.275 161.924 109.842C166.275 112.366 172.171 113.627 179.611 113.627C185.441 113.627 190.336 112.714 194.296 110.886C198.255 109.015 201.453 106.274 203.89 102.663C206.37 99.0079 207.827 95.4618 208.263 92.0245C208.741 88.5437 209.002 83.3442 209.046 76.426H185.55V86.738C185.55 91.2195 185.224 94.2653 184.571 95.8752C183.962 97.485 182.765 98.29 180.982 98.29V96.8976C181.663 96.8976 182.12 96.7453 182.439 96.5305C182.754 96.3184 183.046 95.9711 183.269 95.3829L183.275 95.3666L183.281 95.3517C183.818 94.025 184.158 91.2378 184.158 86.738V75.0337Z" fill="#410EE5"/>
<path d="M142.018 77.0787V55.8673C142.018 49.7324 141.583 45.1638 140.713 42.1616C139.886 39.1594 138.32 36.2442 136.014 33.416C133.707 30.5878 130.422 28.3035 126.158 26.5631C121.938 24.7792 116.869 23.8872 110.952 23.8872C103.903 23.8872 98.1159 25.2578 93.5909 27.9989C89.0658 30.7401 85.933 34.3732 84.1926 38.8983C82.4522 43.4234 81.582 49.7106 81.582 57.76V79.9503C81.582 87.3036 82.0606 92.8294 83.0178 96.5278C83.9751 100.183 85.5632 103.315 87.7822 105.926C90.0448 108.493 93.1993 110.429 97.2457 111.735C101.292 112.996 106.231 113.627 112.061 113.627C117.282 113.627 121.894 112.888 125.897 111.408C129.944 109.886 133.251 107.558 135.818 104.425C138.385 101.249 140.06 97.8549 140.843 94.2435C141.626 90.5886 142.018 84.867 142.018 77.0787ZM114.258 49.3408C114.258 47.1416 114.199 45.38 114.084 44.0434C113.98 42.8327 113.838 42.0806 113.706 41.6802L113.651 41.5293L113.644 41.5116C113.512 41.1886 113.335 40.9996 113.113 40.8726C112.871 40.7336 112.482 40.617 111.865 40.617C111.25 40.617 110.849 40.7322 110.59 40.878C110.348 41.0138 110.154 41.2177 110.005 41.5524L110.001 41.5619L109.997 41.5701C109.844 41.902 109.662 42.6726 109.532 44.0543C109.407 45.3859 109.342 47.1435 109.342 49.3408V88.4349C109.342 90.4554 109.406 92.0983 109.531 93.3747C109.657 94.6736 109.838 95.4872 110.016 95.9227C110.174 96.2882 110.375 96.5006 110.603 96.6366C110.847 96.7816 111.22 96.8976 111.8 96.8976V98.29C110.277 98.29 109.255 97.6808 108.732 96.4625C108.21 95.2007 107.949 92.5249 107.949 88.4349V49.3408C107.949 44.9027 108.21 42.1181 108.732 40.9868C109.255 39.812 110.299 39.2246 111.865 39.2246C113.432 39.2246 114.454 39.812 114.933 40.9868C115.411 42.1181 115.651 44.9027 115.651 49.3408V89.2833C115.651 93.0252 115.39 95.4618 114.867 96.5931C114.389 97.7243 113.366 98.29 111.8 98.29V96.8976C112.424 96.8976 112.821 96.7838 113.067 96.6475C113.291 96.5236 113.461 96.345 113.585 96.0506L113.593 96.0302L113.603 96.0098C113.765 95.6581 113.944 94.9529 114.071 93.769C114.194 92.6184 114.258 91.1276 114.258 89.2833V49.3408ZM143.41 77.0787C143.41 84.8834 143.02 90.7291 142.204 94.5358V94.5386C141.37 98.3839 139.589 101.973 136.9 105.301L136.895 105.307C134.162 108.642 130.647 111.108 126.388 112.711L126.38 112.715C122.192 114.263 117.411 115.02 112.061 115.02C106.509 115.02 101.691 114.457 97.6333 113.302L96.831 113.064L96.8188 113.06C92.8557 111.782 89.6292 109.896 87.2112 107.362L86.738 106.847L86.7217 106.828C84.3539 104.042 82.675 100.716 81.6704 96.88V96.8773C80.6678 93.0036 80.1897 87.3341 80.1897 79.9503V57.76C80.1897 49.6374 81.0637 43.1536 82.8928 38.3979C84.7542 33.5583 88.1057 29.6933 92.8689 26.8078C97.6724 23.898 103.731 22.4949 110.952 22.4949C117.002 22.4949 122.263 23.4063 126.697 25.2795C130.839 26.9719 134.167 29.1906 136.614 31.972L137.093 32.5363C139.496 35.4832 141.162 38.5627 142.049 41.7741H142.051C142.977 44.9718 143.41 49.7019 143.41 55.8673V77.0787Z" fill="#410EE5"/>
<path d="M44.4241 34.0686C44.4241 31.4132 44.348 29.2897 44.2011 27.6848C44.0492 26.0252 43.8333 25.0841 43.6409 24.6718L43.6301 24.6473L43.6192 24.6214C43.4602 24.2425 43.2214 23.9828 42.8686 23.7975C42.4879 23.5974 41.9085 23.4521 41.0521 23.4521C40.0743 23.4521 39.406 23.6275 38.9595 23.8777C38.5411 24.1122 38.2416 24.4532 38.0471 24.9668C37.8135 25.5842 37.5963 26.6981 37.4461 28.4136C37.2987 30.0985 37.2232 32.2629 37.2232 34.9171V83.9968C37.2232 86.541 37.2991 88.6162 37.4461 90.2338C37.5772 91.6758 37.7581 92.6742 37.956 93.2985L38.0417 93.5433C38.2387 94.0498 38.5304 94.3785 38.9201 94.6011C39.3339 94.8376 39.9509 95.0049 40.8563 95.0049V96.3973C38.7243 96.3973 37.3537 95.6141 36.7445 94.0477C36.1354 92.4813 35.8308 89.131 35.8308 83.9968V34.9171C35.8308 29.5653 36.1354 26.0845 36.7445 24.4746C37.3537 22.8647 38.7895 22.0598 41.0521 22.0598C43.0535 22.0598 44.3371 22.7342 44.9027 24.083C45.5119 25.3883 45.8165 28.7169 45.8165 34.0686V52.4735H73.2933V42.4226C73.2933 32.5458 72.4666 25.2795 70.8132 20.6239C69.1598 15.9248 65.7007 12.0089 60.4359 8.87612C55.1712 5.74337 48.4923 4.177 40.3994 4.177C34.4385 4.177 29.152 5.19949 24.5399 7.24448C19.9713 9.24596 16.3817 12.0089 13.771 15.5332C11.2039 19.0576 9.65931 22.7342 9.13719 26.5631C8.61506 30.3485 8.354 36.0484 8.354 43.6627V74.5333C8.354 84.8888 9.20246 92.6554 10.8994 97.8331C12.5963 102.967 16.0553 106.992 21.2766 109.907C26.4978 112.822 33.1332 114.28 41.1826 114.28C48.9274 114.28 55.4323 112.561 60.697 109.124C66.0053 105.687 69.4208 101.684 70.9437 97.1152C72.5101 92.5466 73.2933 84.8018 73.2933 73.8806V69.7689H45.8165V83.0178C45.8165 88.8047 45.4901 92.4813 44.8375 94.0477C44.2283 95.6141 42.9013 96.3973 40.8563 96.3973V95.0049C41.7088 95.0049 42.2882 94.8408 42.6783 94.6106C43.0477 94.3925 43.3381 94.0632 43.5403 93.5433L43.5458 93.527L43.5526 93.512C43.7905 92.9408 44.023 91.8143 44.1848 89.9917C44.3429 88.2106 44.4241 85.8901 44.4241 83.0178V68.3766H74.6856V73.8806C74.6856 84.8107 73.9091 92.7603 72.2613 97.5666L72.2599 97.5653C70.608 102.512 66.9392 106.74 61.453 110.292C55.9152 113.906 49.1326 115.672 41.1826 115.672C33.231 115.672 26.5176 114.279 21.1161 111.406L20.5981 111.123C15.279 108.153 11.629 104.038 9.75313 98.7822L9.57773 98.2696L9.57637 98.2669C7.8091 92.8744 6.96167 84.9285 6.96167 74.5333V43.6627C6.96167 36.0359 7.2217 30.2589 7.75709 26.3755L7.87539 25.6113C8.52505 21.8044 10.128 18.1692 12.6452 14.7133L12.652 14.7038C15.4261 10.9589 19.2212 8.05436 23.981 5.96908C28.7988 3.83397 34.2813 2.78466 40.3994 2.78466C48.4065 2.78466 55.1743 4.28487 60.6249 7.37501L61.1484 7.67958C66.6251 10.9385 70.3399 15.0868 72.1253 20.1575C73.8619 25.0476 74.6856 32.5129 74.6856 42.4226V53.8659H44.4241V34.0686Z" fill="#410EE5"/>
<path d="M314.254 219.01V240.156H338.924V219.01H314.254ZM342.548 133.098L338.089 215.442H315.089L310.63 133.098H342.548ZM312.1 134.491L316.408 214.049H336.77L341.078 134.491H312.1ZM340.317 241.548H312.862V217.617H340.317V241.548Z" fill="#EEFF00"/>
<path d="M278.097 219.01V240.156H302.767V219.01H278.097ZM306.391 133.098L301.932 215.442H278.932L274.473 133.098H306.391ZM275.943 134.491L280.25 214.049H300.613L304.921 134.491H275.943ZM304.159 241.548H276.704V217.617H304.159V241.548Z" fill="#EEFF00"/>
<path d="M211.983 134.491V240.156H238.35V202.432L246.573 240.156H271.962L258.06 188.074L268.764 153.548H246.573L238.35 178.871V134.491H211.983ZM239.742 170.075L245.562 152.156H270.654L259.508 188.102L273.774 241.548H245.452L239.742 215.359V241.548H210.59V133.098H239.742V170.075Z" fill="#EEFF00"/>
<path d="M179.198 203.128H205.486L205.478 204.529C205.434 211.451 205.172 216.72 204.682 220.293C204.213 223.998 202.652 227.748 200.083 231.535C197.505 235.355 194.114 238.263 189.93 240.24L189.919 240.245C185.726 242.181 180.618 243.114 174.651 243.114C167.311 243.114 161.294 241.911 156.705 239.389L156.265 239.141L156.257 239.136C151.648 236.417 148.348 232.612 146.403 227.75L146.398 227.735C144.523 222.888 143.628 216.162 143.628 207.653V183.048C143.628 175.641 144.368 169.883 145.945 165.894C147.573 161.775 150.995 158.238 155.983 155.227C161.074 152.111 167.21 150.589 174.324 150.589C181.177 150.589 187.146 151.998 192.177 154.877L192.661 155.159C197.592 158.109 201.02 161.869 202.811 166.463L202.98 166.91C204.671 171.572 205.478 178.048 205.478 186.246V187.639H177.827V176.261C177.827 174.553 177.757 173.154 177.624 172.054C177.489 170.932 177.299 170.21 177.108 169.798L177.101 169.782C176.918 169.374 176.691 169.133 176.443 168.984C176.186 168.828 175.808 168.712 175.238 168.712C174.636 168.712 174.24 168.82 173.983 168.956C173.746 169.083 173.564 169.265 173.426 169.553C173.273 169.872 173.095 170.554 172.967 171.742C172.844 172.892 172.78 174.394 172.78 176.261V217.117C172.78 220.121 173.166 222.186 173.801 223.464C174.109 224.063 174.447 224.431 174.781 224.652C175.107 224.868 175.504 224.992 176.021 224.992V226.385C174.498 226.385 173.345 225.623 172.562 224.1C171.779 222.534 171.387 220.206 171.387 217.117V176.261C171.387 172.475 171.649 170.039 172.171 168.951C172.693 167.863 173.715 167.319 175.238 167.319C176.761 167.319 177.805 167.95 178.371 169.212C178.936 170.43 179.219 172.78 179.219 176.261V186.246H204.086C204.086 178.11 203.281 171.823 201.671 167.385C200.061 162.946 196.819 159.27 191.946 156.355C187.073 153.439 181.199 151.982 174.324 151.982C167.406 151.982 161.532 153.461 156.703 156.42C151.873 159.335 148.719 162.664 147.239 166.406C145.76 170.147 145.02 175.695 145.02 183.048V207.653C145.02 216.094 145.912 222.621 147.696 227.233C149.523 231.802 152.613 235.369 156.964 237.937C161.315 240.46 167.21 241.722 174.651 241.722C180.481 241.722 185.376 240.808 189.335 238.981C193.295 237.11 196.493 234.369 198.93 230.757C201.41 227.103 202.867 223.556 203.302 220.119C203.781 216.638 204.042 211.439 204.086 204.521H180.59V214.833C180.59 219.314 180.264 222.36 179.611 223.97C179.002 225.58 177.805 226.385 176.021 226.385V224.992C176.702 224.992 177.16 224.84 177.479 224.625C177.794 224.413 178.086 224.066 178.308 223.478L178.315 223.461L178.321 223.446C178.858 222.12 179.198 219.332 179.198 214.833V203.128Z" fill="#EEFF00"/>
<path d="M75.8821 181.286C75.8821 174.513 76.6463 169.14 78.2752 165.277L78.2793 165.27C79.9966 161.263 83.3593 157.845 88.1765 154.964C93.114 152.01 99.4334 150.589 107.036 150.589C116.076 150.589 123.131 152.192 127.994 155.601C132.761 158.902 135.73 163.064 136.726 168.09C137.671 172.817 138.124 182.4 138.124 196.689V241.548H109.69V237.049C108.476 238.481 107.095 239.678 105.541 240.626L105.536 240.63C102.756 242.308 99.4725 243.114 95.7446 243.114C90.8567 243.114 86.347 241.748 82.2483 239.031L82.2333 239.022C77.7885 235.991 75.8821 229.655 75.8821 220.837V213.723C75.8821 207.207 76.8868 202.324 79.2923 199.56C80.4813 198.194 82.4369 196.825 85.0152 195.431C87.62 194.022 90.9693 192.53 95.0458 190.952C97.3511 190.049 99.3602 189.226 101.077 188.487H75.8821V181.286ZM102.01 215.746C102.01 211.83 102.336 208.828 102.989 206.74C103.685 204.651 106.144 202.062 110.364 198.973V216.791C110.364 221.142 110.103 223.839 109.581 224.883C109.102 225.884 108.036 226.385 106.383 226.385V224.992C107.797 224.992 108.182 224.58 108.325 224.283L108.335 224.261C108.47 223.991 108.653 223.287 108.783 221.942C108.907 220.657 108.972 218.944 108.972 216.791V201.807C107.934 202.657 107.067 203.452 106.365 204.19C105.199 205.418 104.565 206.413 104.309 207.18C103.725 209.068 103.402 211.896 103.402 215.746C103.402 217.963 103.472 219.757 103.608 221.142C103.745 222.548 103.941 223.413 104.131 223.86C104.32 224.254 104.566 224.508 104.872 224.678C105.201 224.861 105.681 224.992 106.383 224.992V226.385C104.643 226.385 103.468 225.732 102.859 224.427C102.293 223.121 102.01 220.228 102.01 215.746ZM77.2745 187.095H102.01V178.023C102.01 173.193 102.228 170.213 102.663 169.081C103.098 167.907 104.207 167.319 105.991 167.319C107.558 167.319 108.667 168.015 109.32 169.408C110.016 170.757 110.364 173.694 110.364 178.219C110.364 181.83 110.06 184.223 109.45 185.398C108.841 186.573 104.207 188.857 95.5488 192.251C87.4559 195.383 82.3869 198.125 80.342 200.474C78.297 202.824 77.2745 207.24 77.2745 213.723V220.837C77.2745 229.583 79.1889 235.261 83.0178 237.871C86.8903 240.438 91.1325 241.722 95.7446 241.722C99.269 241.722 102.293 240.961 104.817 239.438C107.384 237.871 109.472 235.544 111.082 232.454V240.156H136.731V196.689C136.731 182.374 136.275 172.932 135.361 168.363C134.447 163.751 131.728 159.879 127.203 156.746C122.678 153.57 115.955 151.982 107.036 151.982C99.5953 151.982 93.5474 153.374 88.8917 156.159C84.2361 158.943 81.1251 162.163 79.5588 165.818C78.0359 169.429 77.2745 174.585 77.2745 181.286V187.095ZM108.225 184.732C108.413 184.357 108.612 183.666 108.754 182.547C108.896 181.429 108.972 179.991 108.972 178.219C108.972 175.986 108.885 174.18 108.72 172.787C108.572 171.536 108.371 170.716 108.17 170.233L108.083 170.047L108.07 170.022L108.059 169.999C107.826 169.502 107.55 169.203 107.259 169.02C106.966 168.836 106.565 168.712 105.991 168.712C105.237 168.712 104.76 168.838 104.473 168.99C104.22 169.124 104.066 169.3 103.968 169.565L103.911 169.737C103.789 170.153 103.657 170.959 103.562 172.267C103.456 173.71 103.402 175.624 103.402 178.023V187.454C103.944 187.204 104.444 186.97 104.902 186.744C106.037 186.184 106.886 185.711 107.472 185.324C107.765 185.131 107.97 184.975 108.103 184.855C108.175 184.79 108.211 184.748 108.225 184.732Z" fill="#EEFF00"/>
<path d="M32.437 134.491H4.96017V240.156H32.437V195.775H40.6605V240.156H68.1373V134.491H40.6605V172.279H32.437V134.491ZM69.5296 241.548H39.2681V197.167H33.8293V241.548H3.56784V133.098H33.8293V170.887H39.2681V133.098H69.5296V241.548Z" fill="#EEFF00"/>
<path d="M348.17 26.8459H377.861L377.586 31.628C378.971 30.1088 380.513 28.8548 382.216 27.8806C385.237 26.1338 388.682 25.2795 392.507 25.2795C396.955 25.2795 400.759 26.2638 403.828 28.3253L404.432 28.7522C407.542 31.0615 409.588 34.0239 410.499 37.6161C411.373 41.0208 411.782 46.571 411.782 54.1487V116.238H382.63V54.8666C382.63 51.8976 382.581 49.5268 382.485 47.7459C382.386 45.9154 382.243 44.8389 382.101 44.367C381.997 44.0199 381.832 43.8264 381.609 43.6926C381.352 43.5385 380.909 43.4016 380.172 43.4016C379.417 43.4016 378.943 43.5554 378.645 43.7483C378.367 43.9283 378.133 44.2129 377.976 44.711L377.972 44.7219C377.794 45.2718 377.619 46.4765 377.499 48.4883C377.382 50.4504 377.322 53.0521 377.322 56.3025V116.238H348.17V26.8459ZM349.562 114.846H375.93V56.3025C375.93 49.7759 376.169 45.7729 376.648 44.2936C377.126 42.7707 378.301 42.0093 380.172 42.0093C381.956 42.0093 383.044 42.6619 383.435 43.9673C383.827 45.2726 384.023 48.9057 384.023 54.8666V114.846H410.39V54.1487C410.39 46.5779 409.977 41.1826 409.15 37.9628C408.323 34.6995 406.474 32.0019 403.602 29.8699C400.731 27.7379 397.032 26.6719 392.507 26.6719C388.896 26.6719 385.698 27.4768 382.913 29.0867C380.172 30.6531 377.844 33.0244 375.93 36.2007L376.387 28.2382H349.562V114.846Z" fill="#EEFF00"/>
<path d="M340.817 79.8633V58.652C340.817 52.517 340.382 47.9485 339.512 44.9462C338.685 41.944 337.119 39.0288 334.812 36.2007C332.506 33.3725 329.221 31.0882 324.957 29.3478C320.737 27.5638 315.668 26.6719 309.75 26.6719C302.702 26.6719 296.915 28.0425 292.39 30.7836C287.865 33.5248 284.732 37.1579 282.992 41.683C281.251 46.208 280.381 52.4953 280.381 60.5447V82.735C280.381 90.0883 280.86 95.6141 281.817 99.3125C282.774 102.967 284.362 106.1 286.581 108.711C288.844 111.278 291.998 113.214 296.045 114.519C300.091 115.781 305.03 116.412 310.86 116.412C316.081 116.412 320.693 115.672 324.696 114.193C328.743 112.67 332.05 110.342 334.617 107.21C337.184 104.033 338.859 100.64 339.642 97.0282C340.425 93.3733 340.817 87.6517 340.817 79.8633ZM313.057 52.1255C313.057 49.9263 312.998 48.1647 312.883 46.8281C312.779 45.6173 312.637 44.8652 312.505 44.4649L312.45 44.314L312.443 44.2963C312.311 43.9733 312.134 43.7843 311.912 43.6572C311.67 43.5182 311.281 43.4016 310.664 43.4016C310.049 43.4016 309.648 43.5169 309.389 43.6627C309.147 43.7985 308.953 44.0023 308.804 44.3371L308.8 44.3466L308.796 44.3548C308.643 44.6867 308.461 45.4572 308.331 46.8389C308.206 48.1706 308.141 49.9281 308.141 52.1255V91.2195C308.141 93.24 308.205 94.883 308.33 96.1593C308.456 97.4582 308.637 98.2718 308.815 98.7074C308.973 99.0729 309.174 99.2853 309.402 99.4213C309.646 99.5662 310.019 99.6823 310.599 99.6823V101.075C309.076 101.075 308.054 100.466 307.531 99.2472C307.009 97.9854 306.748 95.3095 306.748 91.2195V52.1255C306.748 47.6874 307.009 44.9027 307.531 43.7715C308.054 42.5967 309.098 42.0093 310.664 42.0093C312.231 42.0093 313.253 42.5967 313.732 43.7715C314.21 44.9027 314.45 47.6874 314.45 52.1255V92.068C314.45 95.8099 314.189 98.2465 313.666 99.3777C313.188 100.509 312.165 101.075 310.599 101.075V99.6823C311.223 99.6823 311.62 99.5684 311.866 99.4321C312.09 99.3083 312.26 99.1296 312.384 98.8352L312.392 98.8148L312.402 98.7944C312.564 98.4428 312.743 97.7375 312.87 96.5536C312.993 95.4031 313.057 93.9123 313.057 92.068V52.1255ZM342.209 79.8633C342.209 87.6681 341.819 93.5138 341.003 97.3205V97.3232C340.169 101.169 338.388 104.758 335.699 108.085L335.694 108.092C332.961 111.427 329.446 113.893 325.187 115.496L325.179 115.5C320.991 117.047 316.21 117.804 310.86 117.804C305.308 117.804 300.49 117.242 296.432 116.087L295.63 115.849L295.618 115.845C291.655 114.567 288.428 112.681 286.01 110.147L285.537 109.631L285.521 109.612C283.153 106.827 281.474 103.501 280.469 99.6646V99.6619C279.467 95.7882 278.989 90.1188 278.989 82.735V60.5447C278.989 52.4221 279.863 45.9382 281.692 41.1826C283.553 36.343 286.905 32.478 291.668 29.5925C296.471 26.6827 302.53 25.2795 309.75 25.2795C315.801 25.2795 321.062 26.191 325.496 28.0642C329.638 29.7565 332.966 31.9753 335.413 34.7566L335.892 35.3209C338.295 38.2679 339.961 41.3473 340.848 44.5587H340.85C341.776 47.7564 342.209 52.4865 342.209 58.652V79.8633Z" fill="#EEFF00"/>
<path d="M272.419 79.8633V58.652C272.419 52.517 271.984 47.9485 271.113 44.9462C270.287 41.944 268.72 39.0288 266.414 36.2007C264.108 33.3725 260.823 31.0882 256.559 29.3478C252.339 27.5638 247.27 26.6719 241.352 26.6719C234.303 26.6719 228.517 28.0425 223.992 30.7836C219.466 33.5248 216.334 37.1579 214.593 41.683C212.853 46.208 211.983 52.4953 211.983 60.5447V82.735C211.983 90.0883 212.461 95.6141 213.419 99.3125C214.376 102.967 215.964 106.1 218.183 108.711C220.445 111.278 223.6 113.214 227.646 114.519C231.693 115.781 236.631 116.412 242.462 116.412C247.683 116.412 252.295 115.672 256.298 114.193C260.344 112.67 263.651 110.342 266.218 107.21C268.785 104.033 270.461 100.64 271.244 97.0282C272.027 93.3733 272.419 87.6517 272.419 79.8633ZM244.659 52.1255C244.659 49.9263 244.6 48.1647 244.485 46.8281C244.381 45.6173 244.239 44.8652 244.107 44.4649L244.051 44.314L244.044 44.2963C243.913 43.9733 243.735 43.7843 243.514 43.6572C243.272 43.5182 242.883 43.4016 242.266 43.4016C241.651 43.4016 241.25 43.5169 240.991 43.6627C240.749 43.7985 240.555 44.0023 240.406 44.3371L240.402 44.3466L240.398 44.3548C240.244 44.6867 240.062 45.4572 239.933 46.8389C239.808 48.1706 239.742 49.9281 239.742 52.1255V91.2195C239.742 93.24 239.807 94.883 239.931 96.1593C240.058 97.4582 240.238 98.2718 240.417 98.7074C240.575 99.0729 240.776 99.2853 241.004 99.4213C241.247 99.5662 241.621 99.6823 242.201 99.6823V101.075C240.678 101.075 239.655 100.466 239.133 99.2472C238.611 97.9854 238.35 95.3095 238.35 91.2195V52.1255C238.35 47.6874 238.611 44.9027 239.133 43.7715C239.655 42.5967 240.7 42.0093 242.266 42.0093C243.832 42.0093 244.855 42.5967 245.333 43.7715C245.812 44.9027 246.051 47.6874 246.051 52.1255V92.068C246.051 95.8099 245.79 98.2465 245.268 99.3777C244.79 100.509 243.767 101.075 242.201 101.075V99.6823C242.825 99.6823 243.221 99.5684 243.468 99.4321C243.692 99.3083 243.861 99.1296 243.986 98.8352L243.994 98.8148L244.004 98.7944C244.166 98.4428 244.344 97.7375 244.471 96.5536C244.595 95.4031 244.659 93.9123 244.659 92.068V52.1255ZM273.811 79.8633C273.811 87.6681 273.421 93.5138 272.605 97.3205V97.3232C271.771 101.169 269.99 104.758 267.301 108.085L267.295 108.092C264.563 111.427 261.048 113.893 256.789 115.496L256.781 115.5C252.593 117.047 247.812 117.804 242.462 117.804C236.91 117.804 232.092 117.242 228.034 116.087L227.232 115.849L227.219 115.845C223.256 114.567 220.03 112.681 217.612 110.147L217.139 109.631L217.122 109.612C214.755 106.827 213.076 103.501 212.071 99.6646V99.6619C211.068 95.7882 210.59 90.1188 210.59 82.735V60.5447C210.59 52.4221 211.464 45.9382 213.293 41.1826C215.155 36.343 218.506 32.478 223.27 29.5925C228.073 26.6827 234.131 25.2795 241.352 25.2795C247.402 25.2795 252.664 26.191 257.098 28.0642C261.24 29.7565 264.568 31.9753 267.015 34.7566L267.494 35.3209C269.897 38.2679 271.563 41.3473 272.45 44.5587H272.451C273.378 47.7564 273.811 52.4865 273.811 58.652V79.8633Z" fill="#EEFF00"/>
<path d="M179.981 77.8183H206.269L206.261 79.2188C206.217 86.1414 205.956 91.4098 205.466 94.9832C204.997 98.6885 203.435 102.438 200.866 106.225C198.288 110.045 194.897 112.953 190.713 114.93L190.702 114.935C186.509 116.871 181.401 117.804 175.434 117.804C168.095 117.804 162.077 116.601 157.489 114.079L157.048 113.831L157.04 113.826C152.431 111.107 149.131 107.302 147.186 102.44L147.181 102.425C145.306 97.578 144.411 90.852 144.411 82.3434V57.7383C144.411 50.3306 145.151 44.5727 146.728 40.5843C148.357 36.4646 151.778 32.9284 156.767 29.9175C161.857 26.8011 167.993 25.2795 175.108 25.2795C181.96 25.2795 187.93 26.6882 192.96 29.5667L193.445 29.8495C198.376 32.7994 201.803 36.5593 203.595 41.1527L203.763 41.6C205.454 46.2619 206.261 52.7378 206.261 60.9363V62.3286H178.61V50.9507C178.61 49.2426 178.54 47.8442 178.408 46.7438C178.272 45.6218 178.082 44.9 177.891 44.488L177.884 44.4717C177.701 44.0636 177.474 43.8234 177.226 43.6736C176.969 43.5185 176.591 43.4016 176.021 43.4016C175.419 43.4016 175.023 43.5099 174.766 43.6464C174.529 43.7727 174.347 43.9552 174.209 44.2433C174.056 44.5619 173.878 45.2438 173.751 46.4324C173.627 47.5825 173.563 49.084 173.563 50.9507V91.8069C173.563 94.8107 173.949 96.8757 174.584 98.154C174.892 98.7529 175.23 99.1215 175.564 99.3424C175.89 99.5575 176.287 99.6823 176.805 99.6823V101.075C175.282 101.075 174.129 100.313 173.345 98.7904C172.562 97.224 172.171 94.8962 172.171 91.8069V50.9507C172.171 47.1653 172.432 44.7287 172.954 43.6409C173.476 42.5532 174.498 42.0093 176.021 42.0093C177.544 42.0093 178.588 42.6402 179.154 43.902C179.72 45.1203 180.003 47.4698 180.003 50.9507V60.9363H204.869C204.869 52.7999 204.064 46.5126 202.454 42.0746C200.844 37.6365 197.602 33.9599 192.729 31.0447C187.856 28.1295 181.982 26.6719 175.108 26.6719C168.189 26.6719 162.316 28.1512 157.486 31.1099C152.656 34.0251 149.502 37.3537 148.022 41.0956C146.543 44.8375 145.803 50.385 145.803 57.7383V82.3434C145.803 90.7844 146.695 97.311 148.479 101.923C150.307 106.492 153.396 110.06 157.747 112.627C162.098 115.15 167.994 116.412 175.434 116.412C181.264 116.412 186.159 115.498 190.119 113.671C194.078 111.8 197.276 109.059 199.713 105.447C202.193 101.793 203.65 98.2465 204.086 94.8092C204.564 91.3283 204.825 86.1288 204.869 79.2107H181.373V89.5226C181.373 94.0042 181.047 97.0499 180.394 98.6598C179.785 100.27 178.588 101.075 176.805 101.075V99.6823C177.486 99.6823 177.943 99.5299 178.262 99.3152C178.577 99.1031 178.869 98.7558 179.092 98.1676L179.098 98.1513L179.104 98.1363C179.641 96.8097 179.981 94.0224 179.981 89.5226V77.8183Z" fill="#EEFF00"/>
<path d="M137.841 79.8633V58.652C137.841 52.517 137.406 47.9485 136.536 44.9462C135.709 41.944 134.143 39.0288 131.837 36.2007C129.53 33.3725 126.245 31.0882 121.981 29.3478C117.761 27.5638 112.692 26.6719 106.775 26.6719C99.7258 26.6719 93.9389 28.0425 89.4139 30.7836C84.8888 33.5248 81.756 37.1579 80.0156 41.683C78.2752 46.208 77.405 52.4953 77.405 60.5447V82.735C77.405 90.0883 77.8836 95.6141 78.8408 99.3125C79.7981 102.967 81.3862 106.1 83.6052 108.711C85.8678 111.278 89.0223 113.214 93.0687 114.519C97.1152 115.781 102.054 116.412 107.884 116.412C113.105 116.412 117.717 115.672 121.72 114.193C125.767 112.67 129.074 110.342 131.641 107.21C134.208 104.033 135.883 100.64 136.666 97.0282C137.449 93.3733 137.841 87.6517 137.841 79.8633ZM110.081 52.1255C110.081 49.9263 110.022 48.1647 109.907 46.8281C109.803 45.6173 109.661 44.8652 109.529 44.4649L109.474 44.314L109.467 44.2963C109.335 43.9733 109.158 43.7843 108.936 43.6572C108.694 43.5182 108.305 43.4016 107.688 43.4016C107.073 43.4016 106.672 43.5169 106.413 43.6627C106.171 43.7985 105.977 44.0023 105.828 44.3371L105.824 44.3466L105.82 44.3548C105.667 44.6867 105.485 45.4572 105.355 46.8389C105.23 48.1706 105.165 49.9281 105.165 52.1255V91.2195C105.165 93.24 105.229 94.883 105.354 96.1593C105.48 97.4582 105.661 98.2718 105.839 98.7074C105.997 99.0729 106.198 99.2853 106.426 99.4213C106.67 99.5662 107.043 99.6823 107.623 99.6823V101.075C106.1 101.075 105.078 100.466 104.555 99.2472C104.033 97.9854 103.772 95.3095 103.772 91.2195V52.1255C103.772 47.6874 104.033 44.9027 104.555 43.7715C105.078 42.5967 106.122 42.0093 107.688 42.0093C109.255 42.0093 110.277 42.5967 110.756 43.7715C111.234 44.9027 111.474 47.6874 111.474 52.1255V92.068C111.474 95.8099 111.213 98.2465 110.69 99.3777C110.212 100.509 109.189 101.075 107.623 101.075V99.6823C108.247 99.6823 108.644 99.5684 108.89 99.4321C109.114 99.3083 109.284 99.1296 109.408 98.8352L109.416 98.8148L109.426 98.7944C109.588 98.4428 109.767 97.7375 109.894 96.5536C110.017 95.4031 110.081 93.9123 110.081 92.068V52.1255ZM139.233 79.8633C139.233 87.6681 138.843 93.5138 138.027 97.3205V97.3232C137.193 101.169 135.412 104.758 132.723 108.085L132.718 108.092C129.985 111.427 126.47 113.893 122.211 115.496L122.203 115.5C118.015 117.047 113.234 117.804 107.884 117.804C102.332 117.804 97.5142 117.242 93.4563 116.087L92.654 115.849L92.6418 115.845C88.6787 114.567 85.4522 112.681 83.0342 110.147L82.561 109.631L82.5447 109.612C80.1769 106.827 78.498 103.501 77.4934 99.6646V99.6619C76.4908 95.7882 76.0127 90.1188 76.0127 82.735V60.5447C76.0127 52.4221 76.8867 45.9382 78.7157 41.1826C80.5772 36.343 83.9287 32.478 88.6919 29.5925C93.4954 26.6827 99.5536 25.2795 106.775 25.2795C112.825 25.2795 118.086 26.191 122.52 28.0642C126.662 29.7565 129.99 31.9753 132.437 34.7566L132.916 35.3209C135.319 38.2679 136.985 41.3473 137.872 44.5587H137.874C138.8 47.7564 139.233 52.4865 139.233 58.652V79.8633Z" fill="#EEFF00"/>
<path d="M40.2471 36.8533C40.2471 34.1979 40.171 32.0743 40.0241 30.4695C39.8722 28.8099 39.6563 27.8687 39.4639 27.4564L39.4531 27.4319L39.4422 27.4061C39.2832 27.0271 39.0443 26.7675 38.6916 26.5821C38.3109 26.3821 37.7315 26.2368 36.8751 26.2368C35.8973 26.2368 35.229 26.4122 34.7825 26.6624C34.3641 26.8969 34.0646 27.2378 33.8701 27.7515C33.6365 28.3688 33.4193 29.4828 33.2691 31.1983C33.1217 32.8832 33.0461 35.0476 33.0461 37.7018V86.7815C33.0461 89.3257 33.1221 91.4009 33.2691 93.0184C33.4002 94.4605 33.5811 95.4588 33.779 96.0832L33.8647 96.3279C34.0617 96.8345 34.3534 97.1631 34.7431 97.3858C35.1569 97.6223 35.7739 97.7896 36.6793 97.7896V99.1819C34.5473 99.1819 33.1767 98.3988 32.5675 96.8324C31.9584 95.266 31.6538 91.9157 31.6538 86.7815V37.7018C31.6538 32.35 31.9584 28.8691 32.5675 27.2593C33.1767 25.6494 34.6125 24.8444 36.8751 24.8444C38.8765 24.8444 40.1601 25.5188 40.7257 26.8677C41.3349 28.173 41.6395 31.5015 41.6395 36.8533V55.2582H69.1163V45.2073C69.1163 35.3304 68.2896 28.0642 66.6362 23.4086C64.9828 18.7095 61.5237 14.7935 56.2589 11.6608C50.9942 8.52804 44.3153 6.96166 36.2224 6.96166C30.2615 6.96166 24.975 7.98416 20.3629 10.0291C15.7943 12.0306 12.2047 14.7935 9.59405 18.3179C7.02693 21.8422 5.48231 25.5188 4.96019 29.3478C4.43806 33.1332 4.177 38.833 4.177 46.4473V77.318C4.177 87.6735 5.02545 95.4401 6.72236 100.618C8.41926 105.752 11.8783 109.777 17.0996 112.692C22.3208 115.607 28.9562 117.065 37.0056 117.065C44.7504 117.065 51.2552 115.346 56.52 111.909C61.8283 108.471 65.2438 104.468 66.7667 99.8999C68.3331 95.3313 69.1163 87.5864 69.1163 76.6653V72.5536H41.6395V85.8025C41.6395 91.5894 41.3131 95.266 40.6605 96.8324C40.0513 98.3988 38.7243 99.1819 36.6793 99.1819V97.7896C37.5318 97.7896 38.1112 97.6255 38.5013 97.3953C38.8707 97.1771 39.1611 96.8479 39.3633 96.3279L39.3688 96.3116L39.3756 96.2967C39.6135 95.7255 39.846 94.599 40.0078 92.7764C40.1659 90.9952 40.2471 88.6747 40.2471 85.8025V71.1613H70.5086V76.6653C70.5086 87.5954 69.7321 95.5449 68.0843 100.351L68.0829 100.35C66.431 105.296 62.7621 109.524 57.276 113.077C51.7382 116.691 44.9556 118.457 37.0056 118.457C29.054 118.457 22.3406 117.063 16.9391 114.19L16.4211 113.907C11.102 110.938 7.45204 106.823 5.57613 101.567L5.40073 101.054L5.39937 101.052C3.6321 95.6591 2.78467 87.7132 2.78467 77.318V46.4473C2.78467 38.8205 3.04469 33.0436 3.58009 29.1601L3.69839 28.396C4.34805 24.5891 5.95095 20.9539 8.46821 17.498L8.47501 17.4885C11.2491 13.7436 15.0442 10.839 19.804 8.75375C24.6218 6.61864 30.1043 5.56933 36.2224 5.56933C44.2295 5.56933 50.9973 7.06954 56.4479 10.1597L56.9714 10.4643C62.4481 13.7232 66.1629 17.8714 67.9483 22.9422C69.6849 27.8322 70.5086 35.2976 70.5086 45.2073V56.6505H40.2471V36.8533Z" fill="#EEFF00"/>
<path d="M81.6334 286.626C81.6334 281.92 81.6973 278.714 81.8333 277.064L81.8347 277.051C82.0055 275.191 82.6723 273.453 83.7953 271.851C84.9542 270.199 86.5277 268.976 88.47 268.18C90.3977 267.381 92.5734 267 94.9694 267C97.6987 267 100.076 267.412 102.038 268.309L102.425 268.496C104.323 269.454 105.772 270.813 106.698 272.58L106.876 272.939C107.757 274.812 108.158 277.087 108.158 279.7V281.092H100.888C102.019 281.328 103.078 281.757 104.054 282.39L104.364 282.6C105.861 283.657 106.93 284.977 107.45 286.572L107.547 286.895C107.969 288.437 108.158 290.429 108.158 292.818V295.975C108.158 298.763 108.053 300.916 107.824 302.382C107.571 303.996 106.889 305.474 105.821 306.805C104.729 308.17 103.25 309.191 101.451 309.9L101.45 309.899C99.6539 310.612 97.6066 310.951 95.3365 310.951C92.7366 310.951 90.4783 310.616 88.6155 309.886L88.2484 309.735C86.4572 308.96 84.9972 307.846 83.9191 306.38L83.7097 306.082L83.6988 306.066C82.8024 304.705 82.2129 303.263 81.953 301.747L81.8619 301.092L81.8605 301.078C81.7062 299.483 81.6334 296.472 81.6334 292.108V286.626ZM95.486 299.475V292.059C95.486 291.403 95.4499 290.89 95.3881 290.506C95.3559 290.306 95.3188 290.162 95.2875 290.062L95.2168 289.882C95.199 289.852 95.1854 289.839 95.1801 289.833C95.1756 289.829 95.1705 289.825 95.1624 289.821C95.1469 289.813 95.074 289.78 94.8959 289.78C94.7249 289.78 94.6485 289.811 94.6254 289.823C94.6107 289.83 94.5874 289.843 94.5533 289.893C94.5483 289.903 94.5284 289.942 94.5016 290.027C94.4696 290.127 94.4358 290.269 94.4051 290.462C94.3432 290.849 94.3058 291.376 94.3058 292.059V299.23C94.3058 300.071 94.3421 300.728 94.4051 301.218C94.4365 301.462 94.4724 301.649 94.5084 301.787C94.5262 301.854 94.5428 301.905 94.556 301.94C94.5621 301.957 94.566 301.969 94.5696 301.977C94.5852 302.002 94.5966 302.015 94.6022 302.02C94.6082 302.026 94.6132 302.03 94.6199 302.034C94.6314 302.04 94.6988 302.072 94.8715 302.072V303.464C94.1699 303.464 93.664 303.195 93.354 302.657C93.0603 302.118 92.9135 300.976 92.9135 299.23V292.059C92.9135 290.607 93.0685 289.636 93.3785 289.147C93.7048 288.641 94.2106 288.388 94.8959 288.388C95.5975 288.388 96.1034 288.649 96.4134 289.171C96.7234 289.693 96.8784 290.656 96.8784 292.059V299.475C96.8784 301.303 96.65 302.428 96.1931 302.853C95.7362 303.26 95.2957 303.464 94.8715 303.464V302.072C94.8312 302.072 94.9362 302.088 95.2114 301.856C95.2319 301.812 95.287 301.683 95.3419 301.413C95.4301 300.978 95.486 300.343 95.486 299.475ZM83.0258 292.108C83.0258 296.481 83.0992 299.426 83.246 300.944C83.4092 302.461 83.9476 303.913 84.8614 305.3C85.7914 306.671 87.1049 307.723 88.8018 308.457C90.4987 309.191 92.6769 309.559 95.3365 309.559C97.4739 309.559 99.3422 309.24 100.941 308.604C102.556 307.968 103.821 307.079 104.735 305.936C105.665 304.778 106.236 303.522 106.448 302.167C106.66 300.813 106.766 298.749 106.766 295.975V292.818C106.766 290.485 106.578 288.633 106.203 287.262C105.828 285.892 104.947 284.717 103.56 283.738C102.173 282.759 100.574 282.269 98.7629 282.269C97.3271 282.269 96.1197 282.539 95.1407 283.077C94.1617 283.599 93.4193 284.391 92.9135 285.451V279.137C92.9135 277.652 92.938 276.665 92.9869 276.175C93.0359 275.686 93.2235 275.286 93.5498 274.976C93.8762 274.666 94.2922 274.511 94.798 274.511C95.4017 274.511 95.8749 274.674 96.2176 275C96.5765 275.327 96.7723 275.735 96.805 276.224C96.8539 276.697 96.8784 277.856 96.8784 279.7H106.766C106.766 277.22 106.383 275.164 105.616 273.532C104.849 271.9 103.576 270.636 101.798 269.738C100.019 268.841 97.7431 268.392 94.9694 268.392C92.7177 268.392 90.7271 268.751 88.9976 269.469C87.2843 270.171 85.9301 271.231 84.9348 272.651C83.9395 274.07 83.3684 275.58 83.2216 277.179C83.091 278.761 83.0258 281.91 83.0258 286.626V292.108ZM94.3058 281.949C94.3651 281.915 94.4246 281.88 94.4853 281.848V281.849C95.1291 281.497 95.8322 281.25 96.5847 281.092H95.486V279.7C95.486 277.83 95.4593 276.753 95.4194 276.367L95.4181 276.342L95.4153 276.317C95.4086 276.216 95.3862 276.151 95.3378 276.091L95.2807 276.031L95.2685 276.02L95.2576 276.009C95.2397 275.992 95.1469 275.903 94.798 275.903C94.6014 275.903 94.5433 275.952 94.5084 275.985C94.4472 276.043 94.3915 276.123 94.3725 276.314C94.3316 276.723 94.3058 277.64 94.3058 279.137V281.949Z" fill="white"/>
<path d="M69.3472 277.717C69.3472 276.874 69.2116 276.424 69.0943 276.209L69.0453 276.132L69.0182 276.091C68.9619 276.007 68.8838 275.903 68.5123 275.903C68.2034 275.903 68.1007 275.985 68.0065 276.128C67.9651 276.201 67.8711 276.429 67.7958 276.919C67.7206 277.408 67.6775 278.06 67.6775 278.892V282.926C68.8635 280.481 69.3472 278.78 69.3472 277.717ZM81.4567 278.745C81.4567 281.25 80.8253 283.843 79.6197 286.513C78.5397 288.936 75.6205 293.677 70.953 300.653H80.5756V310.192H56.033V302.755L56.237 302.42C61.9078 293.146 65.515 287.043 67.1037 284.053H56.033V281.217C56.033 278.965 56.1477 277.125 56.3974 275.733C56.6686 274.206 57.3292 272.751 58.3282 271.37C59.3737 269.925 60.7377 268.832 62.3923 268.099C64.0479 267.365 65.9715 267.024 68.1208 267.024C72.2633 267.024 75.6362 268.056 77.9922 270.349H77.9935C80.3095 272.572 81.4567 275.407 81.4567 278.745ZM70.7395 277.717C70.7395 279.12 70.1277 281.078 68.9039 283.591C67.6965 286.087 63.8703 292.606 57.4254 303.146V308.8H79.1833V302.045H68.341C73.8886 293.838 77.2253 288.47 78.3511 285.941C79.4933 283.412 80.0644 281.013 80.0644 278.745C80.0644 275.759 79.0527 273.295 77.0295 271.354C75.0226 269.396 72.053 268.417 68.1208 268.417C66.1138 268.417 64.3925 268.735 62.9566 269.371C61.5208 270.008 60.3541 270.946 59.4567 272.186C58.5593 273.426 57.9964 274.69 57.768 275.979C57.5396 277.252 57.4254 278.998 57.4254 281.217V282.661H66.2852V278.892C66.2852 277.146 66.4646 275.979 66.8236 275.392C67.1989 274.805 67.7618 274.511 68.5123 274.511C69.2629 274.511 69.8177 274.78 70.1766 275.319C70.5519 275.841 70.7395 276.64 70.7395 277.717Z" fill="white"/>
<path d="M54.3171 295.804V282.588C54.3171 279.585 54.1621 277.399 53.852 276.028C53.5583 274.658 52.9873 273.426 52.1388 272.333C51.2904 271.24 50.0095 270.318 48.2963 269.567C46.5831 268.8 44.6414 268.417 42.4714 268.417C39.8118 268.417 37.5438 268.963 35.6674 270.057C33.8073 271.15 32.5591 272.602 31.9228 274.413C31.3028 276.224 30.9928 278.949 30.9928 282.588V296.416C30.9928 299.206 31.1886 301.245 31.5802 302.534C31.9717 303.807 32.6326 305.023 33.5626 306.181C34.4926 307.34 35.7408 308.196 37.3072 308.751C38.8736 309.289 40.8397 309.559 43.2056 309.559C45.0004 309.559 46.6239 309.298 48.076 308.775C49.5282 308.253 50.7682 307.397 51.7962 306.206C52.8241 305.014 53.5012 303.734 53.8276 302.363C54.1539 300.992 54.3171 298.806 54.3171 295.804ZM43.037 279.259C43.037 278.225 43.011 277.412 42.9622 276.808C42.9378 276.506 42.9082 276.271 42.8779 276.096C42.8631 276.011 42.8459 275.951 42.8358 275.91C42.7988 275.906 42.7512 275.903 42.6916 275.903C42.5953 275.903 42.5354 275.912 42.5026 275.92C42.4984 275.932 42.4938 275.95 42.4877 275.973C42.4743 276.022 42.4589 276.09 42.4428 276.177C42.4104 276.352 42.3791 276.583 42.3531 276.878C42.3009 277.47 42.2728 278.26 42.2728 279.259V298.594C42.2728 299.728 42.2998 300.611 42.349 301.254C42.3809 301.671 42.4193 301.924 42.4442 302.058C42.4925 302.065 42.5576 302.072 42.6427 302.072V303.464C41.9084 303.464 41.4271 303.228 41.1987 302.755C40.9866 302.281 40.8805 300.895 40.8805 298.594V279.259C40.8805 277.219 40.9947 275.922 41.2231 275.368C41.4679 274.797 41.9574 274.511 42.6916 274.511C43.4422 274.511 43.9154 274.78 44.1111 275.319C44.3233 275.841 44.4293 277.154 44.4293 279.259V298.888C44.4293 300.829 44.3151 302.078 44.0867 302.632C43.8582 303.187 43.3769 303.464 42.6427 303.464V302.072C42.7226 302.072 42.777 302.062 42.8126 302.056C42.8478 301.941 42.9098 301.666 42.9568 301.153C43.0085 300.587 43.037 299.836 43.037 298.888V279.259ZM55.7094 295.804C55.7094 298.821 55.5483 301.146 55.1818 302.685C54.7981 304.297 54.0063 305.775 52.8499 307.115C51.6686 308.484 50.2287 309.481 48.5465 310.086C46.921 310.67 45.135 310.951 43.2056 310.951C40.746 310.951 38.6143 310.672 36.8544 310.067L36.8422 310.063C35.0618 309.432 33.5868 308.436 32.4762 307.053C31.4489 305.773 30.698 304.403 30.249 302.944L30.2477 302.94C29.7929 301.443 29.6004 299.229 29.6004 296.416V282.588C29.6004 278.908 29.909 275.996 30.6053 273.962L30.6093 273.952C31.3683 271.792 32.8555 270.094 34.9617 268.856L34.9672 268.853C37.0992 267.611 39.6209 267.024 42.4714 267.024C44.8068 267.024 46.9468 267.437 48.8647 268.296H48.8633C50.598 269.057 52.0202 270.021 53.0403 271.233L53.2388 271.479C54.214 272.735 54.871 274.155 55.209 275.721C55.5555 277.253 55.7094 279.571 55.7094 282.588V295.804Z" fill="white"/>
<path d="M17.3142 277.717C17.3142 276.874 17.1786 276.424 17.0613 276.209L17.0123 276.132L16.9851 276.091C16.9289 276.007 16.8508 275.903 16.4793 275.903C16.1704 275.903 16.0676 275.985 15.9735 276.128C15.9321 276.201 15.8381 276.429 15.7628 276.919C15.6876 277.408 15.6445 278.06 15.6445 278.892V282.926C16.8304 280.481 17.3142 278.78 17.3142 277.717ZM29.4237 278.745C29.4237 281.25 28.7923 283.843 27.5867 286.513C26.5067 288.936 23.5875 293.677 18.92 300.653H28.5426V310.192H4V302.755L4.20395 302.42C9.87479 293.146 13.482 287.043 15.0707 284.053H4V281.217C4 278.965 4.11469 277.125 4.3644 275.733C4.63554 274.206 5.29621 272.751 6.29517 271.37C7.34069 269.925 8.70471 268.832 10.3593 268.099C12.0149 267.365 13.9385 267.024 16.0877 267.024C20.2302 267.024 23.6032 268.056 25.9592 270.349H25.9605C28.2765 272.572 29.4237 275.407 29.4237 278.745ZM18.7065 277.717C18.7065 279.12 18.0946 281.078 16.8709 283.591C15.6635 286.087 11.8373 292.606 5.39233 303.146V308.8H27.1502V302.045H16.308C21.8556 293.838 25.1923 288.47 26.3181 285.941C27.4603 283.412 28.0313 281.013 28.0313 278.745C28.0313 275.759 27.0197 273.295 24.9965 271.354C22.9896 269.396 20.02 268.417 16.0877 268.417C14.0808 268.417 12.3594 268.735 10.9236 269.371C9.48775 270.008 8.32113 270.946 7.42372 272.186C6.52632 273.426 5.96341 274.69 5.73498 275.979C5.50655 277.252 5.39233 278.998 5.39233 281.217V282.661H14.2521V278.892C14.2521 277.146 14.4316 275.979 14.7906 275.392C15.1659 274.805 15.7288 274.511 16.4793 274.511C17.2299 274.511 17.7846 274.78 18.1436 275.319C18.5189 275.841 18.7065 276.64 18.7065 277.717Z" fill="white"/>
</svg>
